<?xml version="1.0" encoding="UTF-8" standalone="no"?>
<!-- Created with Inkscape (http://www.inkscape.org/) -->

<svg
   width="210mm"
   height="297mm"
   viewBox="0 0 210 297"
   version="1.1"
   id="svg2891"
   inkscape:version="1.2.1 (9c6d41e410, 2022-07-14)"
   sodipodi:docname="neotrellis-128-15_Tony_MidBottom.svg"
   xmlns:inkscape="http://www.inkscape.org/namespaces/inkscape"
   xmlns:sodipodi="http://sodipodi.sourceforge.net/DTD/sodipodi-0.dtd"
   xmlns="http://www.w3.org/2000/svg"
   xmlns:svg="http://www.w3.org/2000/svg">
  <sodipodi:namedview
     id="namedview2893"
     pagecolor="#ffffff"
     bordercolor="#000000"
     borderopacity="0.25"
     inkscape:showpageshadow="2"
     inkscape:pageopacity="0.0"
     inkscape:pagecheckerboard="0"
     inkscape:deskcolor="#d1d1d1"
     inkscape:document-units="mm"
     showgrid="false"
     inkscape:zoom="1.4289282"
     inkscape:cx="427.24331"
     inkscape:cy="911.17246"
     inkscape:window-width="1920"
     inkscape:window-height="1000"
     inkscape:window-x="-11"
     inkscape:window-y="-11"
     inkscape:window-maximized="1"
     inkscape:current-layer="g14534" />
  <defs
     id="defs2888" />
  <g
     inkscape:label="Layer 1"
     inkscape:groupmode="layer"
     id="layer1">
    <g
       id="g14138"
       transform="matrix(0.35277777,0,0,-0.35277777,51.141311,214.14365)"
       style="stroke-width:0.77475;stroke-dasharray:none">
      <path
         d="m 0,0 v -9.096 h -4.221 c -2.218,0 -4.017,-1.799 -4.017,-4.017 v -13.66 c 0,-2.219 1.799,-4.018 4.017,-4.018 h 6.429 c 2.22,0 4.018,1.799 4.018,4.018 v 9.097 h 18.683 c 2.22,0 4.018,1.799 4.018,4.018 V 0 c 0,2.219 -1.798,4.02 -4.018,4.02 H 4.018 C 1.799,4.02 0,2.219 0,0 Z"
         style="fill:none;stroke:#0000ff;stroke-width:0.77475;stroke-linecap:round;stroke-linejoin:round;stroke-miterlimit:10;stroke-dasharray:none;stroke-opacity:1"
         id="path14140" />
    </g>
    <g
       id="g14142"
       transform="matrix(0.35277777,0,0,-0.35277777,49.865913,229.10432)"
       style="stroke-width:0.77475;stroke-dasharray:none">
      <path
         d="m 0,0 v -7.307 c -0.156,0.018 -0.308,0.047 -0.467,0.047 h -20.892 c -2.219,0 -4.018,-1.799 -4.018,-4.017 v -35.356 c 0,-2.219 1.799,-4.017 4.018,-4.017 h 20.892 c 0.159,0 0.311,0.029 0.467,0.046 v -46.671 c 0,-2.221 1.799,-4.018 4.018,-4.018 h 24.506 c 2.22,0 4.018,1.797 4.018,4.018 v 57.048 c 0,2.219 -1.798,4.018 -4.018,4.018 H 4.018 c -0.161,0 -0.313,-0.029 -0.467,-0.047 v 18.625 c 0.154,-0.017 0.306,-0.047 0.467,-0.047 h 24.506 c 2.22,0 4.018,1.799 4.018,4.018 V 0 c 0,2.219 -1.798,4.018 -4.018,4.018 H 4.018 C 1.799,4.018 0,2.219 0,0 Z"
         style="fill:none;stroke:#0000ff;stroke-width:0.77475;stroke-linecap:round;stroke-linejoin:round;stroke-miterlimit:10;stroke-dasharray:none;stroke-opacity:1"
         id="path14144" />
    </g>
    <g
       id="g14146"
       transform="matrix(0.35277777,0,0,-0.35277777,77.410837,138.5674)"
       style="stroke-width:0.77475;stroke-dasharray:none">
      <path
         d="m 0,0 c 2.219,0 4.019,-1.799 4.019,-4.018 v -49.817 c 0,-2.219 -1.8,-4.018 -4.019,-4.018 h -35.354 c -2.219,0 -4.018,1.799 -4.018,4.018 v 49.817 c 0,2.219 1.799,4.018 4.018,4.018 z"
         style="fill:none;stroke:#0000ff;stroke-width:0.77475;stroke-linecap:round;stroke-linejoin:round;stroke-miterlimit:10;stroke-dasharray:none;stroke-opacity:1"
         id="path14148" />
    </g>
    <g
       id="g14150"
       transform="matrix(0.35277777,0,0,-0.35277777,51.141311,153.73046)"
       style="stroke-width:0.77475;stroke-dasharray:none">
      <path
         d="m 0,0 v -9.096 h -4.221 c -2.218,0 -4.017,-1.799 -4.017,-4.017 v -13.66 c 0,-2.219 1.799,-4.018 4.017,-4.018 h 6.429 c 2.22,0 4.018,1.799 4.018,4.018 v 9.097 h 18.683 c 2.22,0 4.018,1.797 4.018,4.018 V 0 c 0,2.219 -1.798,4.018 -4.018,4.018 H 4.018 C 1.799,4.018 0,2.219 0,0 Z"
         style="fill:none;stroke:#0000ff;stroke-width:0.77475;stroke-linecap:round;stroke-linejoin:round;stroke-miterlimit:10;stroke-dasharray:none;stroke-opacity:1"
         id="path14152" />
    </g>
    <g
       id="g14154"
       transform="matrix(0.35277777,0,0,-0.35277777,49.865913,168.69113)"
       style="stroke-width:0.77475;stroke-dasharray:none">
      <path
         d="m 0,0 v -7.307 c -0.156,0.018 -0.308,0.047 -0.467,0.047 h -20.892 c -2.219,0 -4.018,-1.799 -4.018,-4.017 v -35.356 c 0,-2.219 1.799,-4.017 4.018,-4.017 h 20.892 c 0.159,0 0.311,0.029 0.467,0.046 v -46.673 c 0,-2.219 1.799,-4.018 4.018,-4.018 h 24.506 c 2.22,0 4.018,1.799 4.018,4.018 v 57.05 c 0,2.219 -1.798,4.018 -4.018,4.018 H 4.018 c -0.161,0 -0.313,-0.029 -0.467,-0.047 v 18.625 c 0.154,-0.017 0.306,-0.047 0.467,-0.047 h 24.506 c 2.22,0 4.018,1.799 4.018,4.018 V 0 c 0,2.219 -1.798,4.018 -4.018,4.018 H 4.018 C 1.799,4.018 0,2.219 0,0 Z"
         style="fill:none;stroke:#0000ff;stroke-width:0.77475;stroke-linecap:round;stroke-linejoin:round;stroke-miterlimit:10;stroke-dasharray:none;stroke-opacity:1"
         id="path14156" />
    </g>
    <g
       id="g14158"
       transform="matrix(0.35277777,0,0,-0.35277777,82.432417,190.39387)"
       style="stroke-width:0.77475;stroke-dasharray:none">
      <path
         d="m 0,0 c 1.997,0 3.615,-1.619 3.615,-3.617 v -36.158 c 0,-1.996 -1.618,-3.616 -3.615,-3.616 -1.997,0 -3.616,1.62 -3.616,3.616 V -3.617 C -3.616,-1.619 -1.997,0 0,0 Z"
         style="fill:none;stroke:#0000ff;stroke-width:0.77475;stroke-linecap:round;stroke-linejoin:round;stroke-miterlimit:10;stroke-dasharray:none;stroke-opacity:1"
         id="path14160" />
    </g>
    <g
       id="g14162"
       transform="matrix(0.35277777,0,0,-0.35277777,90.225913,190.36837)"
       style="stroke-width:0.77475;stroke-dasharray:none">
      <path
         d="m 0,0 c 1.997,0 3.616,-1.619 3.616,-3.615 v -36.158 c 0,-1.998 -1.619,-3.618 -3.616,-3.618 -1.997,0 -3.616,1.62 -3.616,3.618 V -3.615 C -3.616,-1.619 -1.997,0 0,0 Z"
         style="fill:none;stroke:#0000ff;stroke-width:0.77475;stroke-linecap:round;stroke-linejoin:round;stroke-miterlimit:10;stroke-dasharray:none;stroke-opacity:1"
         id="path14164" />
    </g>
    <g
       id="g14166"
       transform="matrix(0.35277777,0,0,-0.35277777,82.432417,167.41164)"
       style="stroke-width:0.77475;stroke-dasharray:none">
      <path
         d="M 0,0 C 1.997,0 3.615,-0.811 3.615,-1.811 V -19.92 c 0,-1 -1.618,-1.81 -3.615,-1.81 -1.997,0 -3.616,0.81 -3.616,1.81 V -1.811 C -3.616,-0.811 -1.997,0 0,0 Z"
         style="fill:none;stroke:#0000ff;stroke-width:0.77475;stroke-linecap:round;stroke-linejoin:round;stroke-miterlimit:10;stroke-dasharray:none;stroke-opacity:1"
         id="path14168" />
    </g>
    <g
       id="g14170"
       transform="matrix(0.35277777,0,0,-0.35277777,90.225913,167.39855)"
       style="stroke-width:0.77475;stroke-dasharray:none">
      <path
         d="M 0,0 C 1.997,0 3.616,-0.813 3.616,-1.813 V -19.92 c 0,-1.002 -1.619,-1.812 -3.616,-1.812 -1.997,0 -3.616,0.81 -3.616,1.812 V -1.813 C -3.616,-0.813 -1.997,0 0,0 Z"
         style="fill:none;stroke:#0000ff;stroke-width:0.77475;stroke-linecap:round;stroke-linejoin:round;stroke-miterlimit:10;stroke-dasharray:none;stroke-opacity:1"
         id="path14172" />
    </g>
    <g
       id="g14174"
       transform="matrix(0.35277777,0,0,-0.35277777,82.310461,152.26424)"
       style="stroke-width:0.77475;stroke-dasharray:none">
      <path
         d="m 0,0 c 1.996,0 3.615,-0.811 3.615,-1.811 v -18.107 c 0,-1 -1.619,-1.812 -3.615,-1.812 -1.997,0 -3.616,0.812 -3.616,1.812 V -1.811 C -3.616,-0.811 -1.997,0 0,0 Z"
         style="fill:none;stroke:#0000ff;stroke-width:0.77475;stroke-linecap:round;stroke-linejoin:round;stroke-miterlimit:10;stroke-dasharray:none;stroke-opacity:1"
         id="path14176" />
    </g>
    <g
       id="g14178"
       transform="matrix(0.35277777,0,0,-0.35277777,90.225913,152.42822)"
       style="stroke-width:0.77475;stroke-dasharray:none">
      <path
         d="M 0,0 C 1.997,0 3.616,-0.813 3.616,-1.813 V -19.92 c 0,-1.002 -1.619,-1.81 -3.616,-1.81 -1.997,0 -3.616,0.808 -3.616,1.81 V -1.813 C -3.616,-0.813 -1.997,0 0,0 Z"
         style="fill:none;stroke:#0000ff;stroke-width:0.77475;stroke-linecap:round;stroke-linejoin:round;stroke-miterlimit:10;stroke-dasharray:none;stroke-opacity:1"
         id="path14180" />
    </g>
    <g
       id="g14182"
       transform="matrix(0.35277777,0,0,-0.35277777,77.410837,78.154207)"
       style="stroke-width:0.77475;stroke-dasharray:none">
      <path
         d="m 0,0 c 2.219,0 4.019,-1.799 4.019,-4.018 v -49.818 c 0,-2.219 -1.8,-4.018 -4.019,-4.018 h -35.354 c -2.219,0 -4.018,1.799 -4.018,4.018 v 49.818 c 0,2.219 1.799,4.018 4.018,4.018 z"
         style="fill:none;stroke:#0000ff;stroke-width:0.77475;stroke-linecap:round;stroke-linejoin:round;stroke-miterlimit:10;stroke-dasharray:none;stroke-opacity:1"
         id="path14184" />
    </g>
    <g
       id="g14186"
       transform="matrix(0.35277777,0,0,-0.35277777,51.141311,93.31709)"
       style="stroke-width:0.77475;stroke-dasharray:none">
      <path
         d="m 0,0 v -9.097 h -4.221 c -2.218,0 -4.017,-1.799 -4.017,-4.017 v -13.66 c 0,-2.219 1.799,-4.018 4.017,-4.018 h 6.429 c 2.22,0 4.018,1.799 4.018,4.018 v 9.097 h 18.683 c 2.22,0 4.018,1.799 4.018,4.018 V 0 c 0,2.22 -1.798,4.018 -4.018,4.018 H 4.018 C 1.799,4.018 0,2.22 0,0 Z"
         style="fill:none;stroke:#0000ff;stroke-width:0.77475;stroke-linecap:round;stroke-linejoin:round;stroke-miterlimit:10;stroke-dasharray:none;stroke-opacity:1"
         id="path14188" />
    </g>
    <g
       id="g14190"
       transform="matrix(0.35277777,0,0,-0.35277777,49.865913,108.27811)"
       style="stroke-width:0.77475;stroke-dasharray:none">
      <path
         d="m 0,0 v -7.307 c -0.156,0.018 -0.308,0.047 -0.467,0.047 h -20.892 c -2.219,0 -4.018,-1.799 -4.018,-4.017 v -35.356 c 0,-2.219 1.799,-4.017 4.018,-4.017 h 20.892 c 0.159,0 0.311,0.029 0.467,0.046 v -46.672 c 0,-2.218 1.799,-4.018 4.018,-4.018 h 24.506 c 2.22,0 4.018,1.8 4.018,4.018 v 57.049 c 0,2.219 -1.798,4.018 -4.018,4.018 H 4.018 c -0.161,0 -0.313,-0.029 -0.467,-0.047 v 18.625 c 0.154,-0.017 0.306,-0.047 0.467,-0.047 h 24.506 c 2.22,0 4.018,1.799 4.018,4.018 V 0 c 0,2.219 -1.798,4.018 -4.018,4.018 H 4.018 C 1.799,4.018 0,2.219 0,0 Z"
         style="fill:none;stroke:#0000ff;stroke-width:0.77475;stroke-linecap:round;stroke-linejoin:round;stroke-miterlimit:10;stroke-dasharray:none;stroke-opacity:1"
         id="path14192" />
    </g>
    <g
       id="g14194"
       transform="matrix(0.35277777,0,0,-0.35277777,82.432417,129.98086)"
       style="stroke-width:0.77475;stroke-dasharray:none">
      <path
         d="m 0,0 c 1.997,0 3.615,-1.619 3.615,-3.616 v -36.158 c 0,-1.997 -1.618,-3.617 -3.615,-3.617 -1.997,0 -3.616,1.62 -3.616,3.617 V -3.616 C -3.616,-1.619 -1.997,0 0,0 Z"
         style="fill:none;stroke:#0000ff;stroke-width:0.77475;stroke-linecap:round;stroke-linejoin:round;stroke-miterlimit:10;stroke-dasharray:none;stroke-opacity:1"
         id="path14196" />
    </g>
    <g
       id="g14198"
       transform="matrix(0.35277777,0,0,-0.35277777,90.225913,129.95535)"
       style="stroke-width:0.77475;stroke-dasharray:none">
      <path
         d="m 0,0 c 1.997,0 3.616,-1.617 3.616,-3.615 v -36.158 c 0,-1.998 -1.619,-3.616 -3.616,-3.616 -1.997,0 -3.616,1.618 -3.616,3.616 V -3.615 C -3.616,-1.617 -1.997,0 0,0 Z"
         style="fill:none;stroke:#0000ff;stroke-width:0.77475;stroke-linecap:round;stroke-linejoin:round;stroke-miterlimit:10;stroke-dasharray:none;stroke-opacity:1"
         id="path14200" />
    </g>
    <g
       id="g14202"
       transform="matrix(0.35277777,0,0,-0.35277777,82.432417,106.99862)"
       style="stroke-width:0.77475;stroke-dasharray:none">
      <path
         d="M 0,0 C 1.997,0 3.615,-0.811 3.615,-1.811 V -19.92 c 0,-1 -1.618,-1.811 -3.615,-1.811 -1.997,0 -3.616,0.811 -3.616,1.811 V -1.811 C -3.616,-0.811 -1.997,0 0,0 Z"
         style="fill:none;stroke:#0000ff;stroke-width:0.77475;stroke-linecap:round;stroke-linejoin:round;stroke-miterlimit:10;stroke-dasharray:none;stroke-opacity:1"
         id="path14204" />
    </g>
    <g
       id="g14206"
       transform="matrix(0.35277777,0,0,-0.35277777,90.225913,106.98585)"
       style="stroke-width:0.77475;stroke-dasharray:none">
      <path
         d="m 0,0 c 1.997,0 3.616,-0.811 3.616,-1.811 v -18.108 c 0,-1.002 -1.619,-1.811 -3.616,-1.811 -1.997,0 -3.616,0.809 -3.616,1.811 V -1.811 C -3.616,-0.811 -1.997,0 0,0 Z"
         style="fill:none;stroke:#0000ff;stroke-width:0.77475;stroke-linecap:round;stroke-linejoin:round;stroke-miterlimit:10;stroke-dasharray:none;stroke-opacity:1"
         id="path14208" />
    </g>
    <g
       id="g14210"
       transform="matrix(0.35277777,0,0,-0.35277777,82.310461,91.850522)"
       style="stroke-width:0.77475;stroke-dasharray:none">
      <path
         d="M 0,0 C 1.996,0 3.615,-0.812 3.615,-1.812 V -19.92 c 0,-1 -1.619,-1.812 -3.615,-1.812 -1.997,0 -3.616,0.812 -3.616,1.812 V -1.812 C -3.616,-0.812 -1.997,0 0,0 Z"
         style="fill:none;stroke:#0000ff;stroke-width:0.77475;stroke-linecap:round;stroke-linejoin:round;stroke-miterlimit:10;stroke-dasharray:none;stroke-opacity:1"
         id="path14212" />
    </g>
    <g
       id="g14214"
       transform="matrix(0.35277777,0,0,-0.35277777,90.225913,92.015199)"
       style="stroke-width:0.77475;stroke-dasharray:none">
      <path
         d="M 0,0 C 1.997,0 3.616,-0.812 3.616,-1.812 V -19.92 c 0,-1 -1.619,-1.811 -3.616,-1.811 -1.997,0 -3.616,0.811 -3.616,1.811 V -1.812 C -3.616,-0.812 -1.997,0 0,0 Z"
         style="fill:none;stroke:#0000ff;stroke-width:0.77475;stroke-linecap:round;stroke-linejoin:round;stroke-miterlimit:10;stroke-dasharray:none;stroke-opacity:1"
         id="path14216" />
    </g>
    <g
       id="g14218"
       transform="matrix(0.35277777,0,0,-0.35277777,77.410837,27.884081)"
       style="stroke-width:0.77475;stroke-dasharray:none">
      <path
         d="M 0,0 C 2.219,0 4.019,-1.799 4.019,-4.018 V -24.91 c 0,-2.217 -1.8,-4.018 -4.019,-4.018 h -35.354 c -2.219,0 -4.018,1.801 -4.018,4.018 v 20.892 c 0,2.219 1.799,4.018 4.018,4.018 z"
         style="fill:none;stroke:#0000ff;stroke-width:0.77475;stroke-linecap:round;stroke-linejoin:round;stroke-miterlimit:10;stroke-dasharray:none;stroke-opacity:1"
         id="path14220" />
    </g>
    <g
       id="g14222"
       transform="matrix(0.35277777,0,0,-0.35277777,51.141311,32.992444)"
       style="stroke-width:0.77475;stroke-dasharray:none">
      <path
         d="m 0,0 v -9.096 h -4.221 c -2.218,0 -4.017,-1.799 -4.017,-4.017 v -13.66 c 0,-2.219 1.799,-4.018 4.017,-4.018 h 6.429 c 2.22,0 4.018,1.799 4.018,4.018 v 9.095 h 18.683 c 2.22,0 4.018,1.799 4.018,4.018 V 0 c 0,2.219 -1.798,4.018 -4.018,4.018 H 4.018 C 1.799,4.018 0,2.219 0,0 Z"
         style="fill:none;stroke:#0000ff;stroke-width:0.77475;stroke-linecap:round;stroke-linejoin:round;stroke-miterlimit:10;stroke-dasharray:none;stroke-opacity:1"
         id="path14224" />
    </g>
    <g
       id="g14226"
       transform="matrix(0.35277777,0,0,-0.35277777,49.865913,47.953114)"
       style="stroke-width:0.77475;stroke-dasharray:none">
      <path
         d="m 0,0 v -7.309 c -0.156,0.02 -0.308,0.047 -0.467,0.047 h -20.892 c -2.219,0 -4.018,-1.797 -4.018,-4.017 v -35.354 c 0,-2.219 1.799,-4.017 4.018,-4.017 h 20.892 c 0.159,0 0.311,0.027 0.467,0.046 v -46.673 c 0,-2.219 1.799,-4.018 4.018,-4.018 h 24.506 c 2.22,0 4.018,1.799 4.018,4.018 v 57.048 c 0,2.221 -1.798,4.02 -4.018,4.02 H 4.018 c -0.161,0 -0.313,-0.029 -0.467,-0.049 v 18.627 c 0.154,-0.019 0.306,-0.047 0.467,-0.047 h 24.506 c 2.22,0 4.018,1.799 4.018,4.018 V 0 c 0,2.217 -1.798,4.018 -4.018,4.018 H 4.018 C 1.799,4.018 0,2.217 0,0 Z"
         style="fill:none;stroke:#0000ff;stroke-width:0.77475;stroke-linecap:round;stroke-linejoin:round;stroke-miterlimit:10;stroke-dasharray:none;stroke-opacity:1"
         id="path14228" />
    </g>
    <g
       id="g14230"
       transform="matrix(0.35277777,0,0,-0.35277777,82.432417,69.655861)"
       style="stroke-width:0.77475;stroke-dasharray:none">
      <path
         d="m 0,0 c 1.997,0 3.615,-1.619 3.615,-3.617 v -36.158 c 0,-1.997 -1.618,-3.616 -3.615,-3.616 -1.997,0 -3.616,1.619 -3.616,3.616 V -3.617 C -3.616,-1.619 -1.997,0 0,0 Z"
         style="fill:none;stroke:#0000ff;stroke-width:0.77475;stroke-linecap:round;stroke-linejoin:round;stroke-miterlimit:10;stroke-dasharray:none;stroke-opacity:1"
         id="path14232" />
    </g>
    <g
       id="g14234"
       transform="matrix(0.35277777,0,0,-0.35277777,90.225913,69.630356)"
       style="stroke-width:0.77475;stroke-dasharray:none">
      <path
         d="m 0,0 c 1.997,0 3.616,-1.619 3.616,-3.615 v -36.159 c 0,-1.997 -1.619,-3.617 -3.616,-3.617 -1.997,0 -3.616,1.62 -3.616,3.617 V -3.615 C -3.616,-1.619 -1.997,0 0,0 Z"
         style="fill:none;stroke:#0000ff;stroke-width:0.77475;stroke-linecap:round;stroke-linejoin:round;stroke-miterlimit:10;stroke-dasharray:none;stroke-opacity:1"
         id="path14236" />
    </g>
    <g
       id="g14238"
       transform="matrix(0.35277777,0,0,-0.35277777,82.432417,46.673624)"
       style="stroke-width:0.77475;stroke-dasharray:none">
      <path
         d="M 0,0 C 1.997,0 3.615,-0.813 3.615,-1.813 V -19.92 c 0,-1.002 -1.618,-1.812 -3.615,-1.812 -1.997,0 -3.616,0.81 -3.616,1.812 V -1.813 C -3.616,-0.813 -1.997,0 0,0 Z"
         style="fill:none;stroke:#0000ff;stroke-width:0.77475;stroke-linecap:round;stroke-linejoin:round;stroke-miterlimit:10;stroke-dasharray:none;stroke-opacity:1"
         id="path14240" />
    </g>
    <g
       id="g14242"
       transform="matrix(0.35277777,0,0,-0.35277777,90.225913,46.661207)"
       style="stroke-width:0.77475;stroke-dasharray:none">
      <path
         d="M 0,0 C 1.997,0 3.616,-0.811 3.616,-1.811 V -19.92 c 0,-1 -1.619,-1.81 -3.616,-1.81 -1.997,0 -3.616,0.81 -3.616,1.81 V -1.811 C -3.616,-0.811 -1.997,0 0,0 Z"
         style="fill:none;stroke:#0000ff;stroke-width:0.77475;stroke-linecap:round;stroke-linejoin:round;stroke-miterlimit:10;stroke-dasharray:none;stroke-opacity:1"
         id="path14244" />
    </g>
    <g
       id="g14246"
       transform="matrix(0.35277777,0,0,-0.35277777,82.310461,31.526229)"
       style="stroke-width:0.77475;stroke-dasharray:none">
      <path
         d="M 0,0 C 1.996,0 3.615,-0.811 3.615,-1.811 V -19.92 c 0,-1 -1.619,-1.81 -3.615,-1.81 -1.997,0 -3.616,0.81 -3.616,1.81 V -1.811 C -3.616,-0.811 -1.997,0 0,0 Z"
         style="fill:none;stroke:#0000ff;stroke-width:0.77475;stroke-linecap:round;stroke-linejoin:round;stroke-miterlimit:10;stroke-dasharray:none;stroke-opacity:1"
         id="path14248" />
    </g>
    <g
       id="g14250"
       transform="matrix(0.35277777,0,0,-0.35277777,90.225913,31.690906)"
       style="stroke-width:0.77475;stroke-dasharray:none">
      <path
         d="M 0,0 C 1.997,0 3.616,-0.811 3.616,-1.811 V -19.92 c 0,-1 -1.619,-1.81 -3.616,-1.81 -1.997,0 -3.616,0.81 -3.616,1.81 V -1.811 C -3.616,-0.811 -1.997,0 0,0 Z"
         style="fill:none;stroke:#0000ff;stroke-width:0.77475;stroke-linecap:round;stroke-linejoin:round;stroke-miterlimit:10;stroke-dasharray:none;stroke-opacity:1"
         id="path14252" />
    </g>
    <g
       id="g14254"
       transform="matrix(0.35277777,0,0,-0.35277777,137.47005,198.98041)"
       style="stroke-width:0.77475;stroke-dasharray:none">
      <path
         d="m 0,0 c 2.219,0 4.018,-1.799 4.018,-4.018 v -49.818 c 0,-2.219 -1.799,-4.018 -4.018,-4.018 h -35.355 c -2.219,0 -4.018,1.799 -4.018,4.018 v 49.818 c 0,2.219 1.799,4.018 4.018,4.018 z"
         style="fill:none;stroke:#0000ff;stroke-width:0.77475;stroke-linecap:round;stroke-linejoin:round;stroke-miterlimit:10;stroke-dasharray:none;stroke-opacity:1"
         id="path14256" />
    </g>
    <g
       id="g14258"
       transform="matrix(0.35277777,0,0,-0.35277777,137.47005,259.17245)"
       style="stroke-width:0.77475;stroke-dasharray:none">
      <path
         d="M 0,0 C 2.219,0 4.018,-1.799 4.018,-4.018 V -24.91 c 0,-2.219 -1.799,-4.018 -4.018,-4.018 h -35.355 c -2.219,0 -4.018,1.799 -4.018,4.018 v 20.892 c 0,2.219 1.799,4.018 4.018,4.018 z"
         style="fill:none;stroke:#0000ff;stroke-width:0.77475;stroke-linecap:round;stroke-linejoin:round;stroke-miterlimit:10;stroke-dasharray:none;stroke-opacity:1"
         id="path14260" />
    </g>
    <g
       id="g14262"
       transform="matrix(0.35277777,0,0,-0.35277777,111.20053,214.14365)"
       style="stroke-width:0.77475;stroke-dasharray:none">
      <path
         d="m 0,0 v -9.096 h -4.221 c -2.218,0 -4.017,-1.799 -4.017,-4.017 v -13.66 c 0,-2.219 1.799,-4.018 4.017,-4.018 h 6.428 c 2.221,0 4.018,1.799 4.018,4.018 v 9.097 H 24.91 c 2.219,0 4.018,1.799 4.018,4.018 V 0 c 0,2.219 -1.799,4.02 -4.018,4.02 H 4.018 C 1.799,4.02 0,2.219 0,0 Z"
         style="fill:none;stroke:#0000ff;stroke-width:0.77475;stroke-linecap:round;stroke-linejoin:round;stroke-miterlimit:10;stroke-dasharray:none;stroke-opacity:1"
         id="path14264" />
    </g>
    <g
       id="g14266"
       transform="matrix(0.35277777,0,0,-0.35277777,142.49163,250.80707)"
       style="stroke-width:0.77475;stroke-dasharray:none">
      <path
         d="m 0,0 c 1.996,0 3.615,-1.619 3.615,-3.615 v -36.158 c 0,-1.998 -1.619,-3.618 -3.615,-3.618 -1.998,0 -3.615,1.62 -3.615,3.618 V -3.615 C -3.615,-1.619 -1.998,0 0,0 Z"
         style="fill:none;stroke:#0000ff;stroke-width:0.77475;stroke-linecap:round;stroke-linejoin:round;stroke-miterlimit:10;stroke-dasharray:none;stroke-opacity:1"
         id="path14268" />
    </g>
    <g
       id="g14270"
       transform="matrix(0.35277777,0,0,-0.35277777,150.28513,250.78156)"
       style="stroke-width:0.77475;stroke-dasharray:none">
      <path
         d="m 0,0 c 1.996,0 3.615,-1.619 3.615,-3.615 v -36.158 c 0,-1.998 -1.619,-3.618 -3.615,-3.618 -1.998,0 -3.615,1.62 -3.615,3.618 V -3.615 C -3.615,-1.619 -1.998,0 0,0 Z"
         style="fill:none;stroke:#0000ff;stroke-width:0.77475;stroke-linecap:round;stroke-linejoin:round;stroke-miterlimit:10;stroke-dasharray:none;stroke-opacity:1"
         id="path14272" />
    </g>
    <g
       id="g14274"
       transform="matrix(0.35277777,0,0,-0.35277777,142.49163,227.82483)"
       style="stroke-width:0.77475;stroke-dasharray:none">
      <path
         d="M 0,0 C 1.996,0 3.615,-0.811 3.615,-1.811 V -19.92 c 0,-1 -1.619,-1.812 -3.615,-1.812 -1.998,0 -3.615,0.812 -3.615,1.812 V -1.811 C -3.615,-0.811 -1.998,0 0,0 Z"
         style="fill:none;stroke:#0000ff;stroke-width:0.77475;stroke-linecap:round;stroke-linejoin:round;stroke-miterlimit:10;stroke-dasharray:none;stroke-opacity:1"
         id="path14276" />
    </g>
    <g
       id="g14278"
       transform="matrix(0.35277777,0,0,-0.35277777,150.28513,227.81174)"
       style="stroke-width:0.77475;stroke-dasharray:none">
      <path
         d="M 0,0 C 1.996,0 3.615,-0.813 3.615,-1.813 V -19.92 c 0,-1.002 -1.619,-1.812 -3.615,-1.812 -1.998,0 -3.615,0.81 -3.615,1.812 V -1.813 C -3.615,-0.813 -1.998,0 0,0 Z"
         style="fill:none;stroke:#0000ff;stroke-width:0.77475;stroke-linecap:round;stroke-linejoin:round;stroke-miterlimit:10;stroke-dasharray:none;stroke-opacity:1"
         id="path14280" />
    </g>
    <g
       id="g14282"
       transform="matrix(0.35277777,0,0,-0.35277777,142.36968,212.67743)"
       style="stroke-width:0.77475;stroke-dasharray:none">
      <path
         d="M 0,0 C 1.996,0 3.615,-0.811 3.615,-1.809 V -19.92 c 0,-1 -1.619,-1.81 -3.615,-1.81 -1.998,0 -3.615,0.81 -3.615,1.81 V -1.809 C -3.615,-0.811 -1.998,0 0,0 Z"
         style="fill:none;stroke:#0000ff;stroke-width:0.77475;stroke-linecap:round;stroke-linejoin:round;stroke-miterlimit:10;stroke-dasharray:none;stroke-opacity:1"
         id="path14284" />
    </g>
    <g
       id="g14286"
       transform="matrix(0.35277777,0,0,-0.35277777,150.28513,212.8414)"
       style="stroke-width:0.77475;stroke-dasharray:none">
      <path
         d="M 0,0 C 1.996,0 3.615,-0.813 3.615,-1.813 V -19.92 c 0,-1 -1.619,-1.81 -3.615,-1.81 -1.998,0 -3.615,0.81 -3.615,1.81 V -1.813 C -3.615,-0.813 -1.998,0 0,0 Z"
         style="fill:none;stroke:#0000ff;stroke-width:0.77475;stroke-linecap:round;stroke-linejoin:round;stroke-miterlimit:10;stroke-dasharray:none;stroke-opacity:1"
         id="path14288" />
    </g>
    <g
       id="g14290"
       transform="matrix(0.35277777,0,0,-0.35277777,137.47005,138.5674)"
       style="stroke-width:0.77475;stroke-dasharray:none">
      <path
         d="m 0,0 c 2.219,0 4.018,-1.799 4.018,-4.018 v -49.817 c 0,-2.219 -1.799,-4.018 -4.018,-4.018 h -35.355 c -2.219,0 -4.018,1.799 -4.018,4.018 v 49.817 c 0,2.219 1.799,4.018 4.018,4.018 z"
         style="fill:none;stroke:#0000ff;stroke-width:0.77475;stroke-linecap:round;stroke-linejoin:round;stroke-miterlimit:10;stroke-dasharray:none;stroke-opacity:1"
         id="path14292" />
    </g>
    <g
       id="g14294"
       transform="matrix(0.35277777,0,0,-0.35277777,111.20053,153.73046)"
       style="stroke-width:0.77475;stroke-dasharray:none">
      <path
         d="m 0,0 v -9.096 h -4.221 c -2.218,0 -4.017,-1.799 -4.017,-4.017 v -13.66 c 0,-2.219 1.799,-4.018 4.017,-4.018 h 6.428 c 2.221,0 4.018,1.799 4.018,4.018 v 9.097 H 24.91 c 2.219,0 4.018,1.797 4.018,4.018 V 0 c 0,2.219 -1.799,4.018 -4.018,4.018 H 4.018 C 1.799,4.018 0,2.219 0,0 Z"
         style="fill:none;stroke:#0000ff;stroke-width:0.77475;stroke-linecap:round;stroke-linejoin:round;stroke-miterlimit:10;stroke-dasharray:none;stroke-opacity:1"
         id="path14296" />
    </g>
    <g
       id="g14298"
       transform="matrix(0.35277777,0,0,-0.35277777,109.92513,168.69113)"
       style="stroke-width:0.77475;stroke-dasharray:none">
      <path
         d="m 0,0 v -7.307 c -0.156,0.018 -0.309,0.047 -0.467,0.047 h -5.437 c -0.434,0.139 -0.887,0.235 -1.366,0.235 h -34.451 c -2.468,0 -4.47,-2.002 -4.47,-4.469 v -34.451 c 0,-2.469 2.002,-4.471 4.47,-4.471 h 19.059 c 0.41,-0.141 0.844,-0.234 1.303,-0.234 h 20.892 c 0.158,0 0.311,0.029 0.467,0.046 v -46.673 c 0,-2.219 1.799,-4.018 4.018,-4.018 h 24.507 c 2.219,0 4.018,1.799 4.018,4.018 v 57.05 c 0,2.219 -1.799,4.018 -4.018,4.018 H 4.018 c -0.161,0 -0.313,-0.029 -0.467,-0.047 v 18.625 c 0.154,-0.017 0.306,-0.047 0.467,-0.047 h 24.507 c 2.219,0 4.018,1.799 4.018,4.018 V 0 c 0,2.219 -1.799,4.018 -4.018,4.018 H 4.018 C 1.799,4.018 0,2.219 0,0 Z"
         style="fill:none;stroke:#0000ff;stroke-width:0.77475;stroke-linecap:round;stroke-linejoin:round;stroke-miterlimit:10;stroke-dasharray:none;stroke-opacity:1"
         id="path14300" />
    </g>
    <g
       id="g14302"
       transform="matrix(0.35277777,0,0,-0.35277777,142.49163,190.39387)"
       style="stroke-width:0.77475;stroke-dasharray:none">
      <path
         d="m 0,0 c 1.996,0 3.615,-1.619 3.615,-3.617 v -36.158 c 0,-1.996 -1.619,-3.616 -3.615,-3.616 -1.998,0 -3.615,1.62 -3.615,3.616 V -3.617 C -3.615,-1.619 -1.998,0 0,0 Z"
         style="fill:none;stroke:#0000ff;stroke-width:0.77475;stroke-linecap:round;stroke-linejoin:round;stroke-miterlimit:10;stroke-dasharray:none;stroke-opacity:1"
         id="path14304" />
    </g>
    <g
       id="g14306"
       transform="matrix(0.35277777,0,0,-0.35277777,150.28513,190.36837)"
       style="stroke-width:0.77475;stroke-dasharray:none">
      <path
         d="m 0,0 c 1.996,0 3.615,-1.619 3.615,-3.615 v -36.158 c 0,-1.998 -1.619,-3.618 -3.615,-3.618 -1.998,0 -3.615,1.62 -3.615,3.618 V -3.615 C -3.615,-1.619 -1.998,0 0,0 Z"
         style="fill:none;stroke:#0000ff;stroke-width:0.77475;stroke-linecap:round;stroke-linejoin:round;stroke-miterlimit:10;stroke-dasharray:none;stroke-opacity:1"
         id="path14308" />
    </g>
    <g
       id="g14310"
       transform="matrix(0.35277777,0,0,-0.35277777,142.49163,167.41164)"
       style="stroke-width:0.77475;stroke-dasharray:none">
      <path
         d="M 0,0 C 1.996,0 3.615,-0.811 3.615,-1.811 V -19.92 c 0,-1 -1.619,-1.81 -3.615,-1.81 -1.998,0 -3.615,0.81 -3.615,1.81 V -1.811 C -3.615,-0.811 -1.998,0 0,0 Z"
         style="fill:none;stroke:#0000ff;stroke-width:0.77475;stroke-linecap:round;stroke-linejoin:round;stroke-miterlimit:10;stroke-dasharray:none;stroke-opacity:1"
         id="path14312" />
    </g>
    <g
       id="g14314"
       transform="matrix(0.35277777,0,0,-0.35277777,150.28513,167.39855)"
       style="stroke-width:0.77475;stroke-dasharray:none">
      <path
         d="M 0,0 C 1.996,0 3.615,-0.813 3.615,-1.813 V -19.92 c 0,-1.002 -1.619,-1.812 -3.615,-1.812 -1.998,0 -3.615,0.81 -3.615,1.812 V -1.813 C -3.615,-0.813 -1.998,0 0,0 Z"
         style="fill:none;stroke:#0000ff;stroke-width:0.77475;stroke-linecap:round;stroke-linejoin:round;stroke-miterlimit:10;stroke-dasharray:none;stroke-opacity:1"
         id="path14316" />
    </g>
    <g
       id="g14318"
       transform="matrix(0.35277777,0,0,-0.35277777,142.36968,152.26424)"
       style="stroke-width:0.77475;stroke-dasharray:none">
      <path
         d="m 0,0 c 1.996,0 3.615,-0.811 3.615,-1.811 v -18.107 c 0,-1 -1.619,-1.812 -3.615,-1.812 -1.998,0 -3.615,0.812 -3.615,1.812 V -1.811 C -3.615,-0.811 -1.998,0 0,0 Z"
         style="fill:none;stroke:#0000ff;stroke-width:0.77475;stroke-linecap:round;stroke-linejoin:round;stroke-miterlimit:10;stroke-dasharray:none;stroke-opacity:1"
         id="path14320" />
    </g>
    <g
       id="g14322"
       transform="matrix(0.35277777,0,0,-0.35277777,150.28513,152.42822)"
       style="stroke-width:0.77475;stroke-dasharray:none">
      <path
         d="M 0,0 C 1.996,0 3.615,-0.813 3.615,-1.813 V -19.92 c 0,-1.002 -1.619,-1.81 -3.615,-1.81 -1.998,0 -3.615,0.808 -3.615,1.81 V -1.813 C -3.615,-0.813 -1.998,0 0,0 Z"
         style="fill:none;stroke:#0000ff;stroke-width:0.77475;stroke-linecap:round;stroke-linejoin:round;stroke-miterlimit:10;stroke-dasharray:none;stroke-opacity:1"
         id="path14324" />
    </g>
    <g
       id="g14326"
       transform="matrix(0.35277777,0,0,-0.35277777,137.47005,78.154207)"
       style="stroke-width:0.77475;stroke-dasharray:none">
      <path
         d="m 0,0 c 2.219,0 4.018,-1.799 4.018,-4.018 v -49.818 c 0,-2.219 -1.799,-4.018 -4.018,-4.018 h -35.355 c -2.219,0 -4.018,1.799 -4.018,4.018 v 49.818 c 0,2.219 1.799,4.018 4.018,4.018 z"
         style="fill:none;stroke:#0000ff;stroke-width:0.77475;stroke-linecap:round;stroke-linejoin:round;stroke-miterlimit:10;stroke-dasharray:none;stroke-opacity:1"
         id="path14328" />
    </g>
    <g
       id="g14330"
       transform="matrix(0.35277777,0,0,-0.35277777,111.20053,93.31709)"
       style="stroke-width:0.77475;stroke-dasharray:none">
      <path
         d="m 0,0 v -9.097 h -4.221 c -2.218,0 -4.017,-1.799 -4.017,-4.017 v -13.66 c 0,-2.219 1.799,-4.018 4.017,-4.018 h 6.428 c 2.221,0 4.018,1.799 4.018,4.018 v 9.097 H 24.91 c 2.219,0 4.018,1.799 4.018,4.018 V 0 c 0,2.22 -1.799,4.018 -4.018,4.018 H 4.018 C 1.799,4.018 0,2.22 0,0 Z"
         style="fill:none;stroke:#0000ff;stroke-width:0.77475;stroke-linecap:round;stroke-linejoin:round;stroke-miterlimit:10;stroke-dasharray:none;stroke-opacity:1"
         id="path14332" />
    </g>
    <g
       id="g14334"
       transform="matrix(0.35277777,0,0,-0.35277777,109.92513,108.27811)"
       style="stroke-width:0.77475;stroke-dasharray:none">
      <path
         d="m 0,0 v -7.307 c -0.156,0.018 -0.309,0.047 -0.467,0.047 h -5.437 c -0.434,0.14 -0.887,0.235 -1.366,0.235 h -34.451 c -2.468,0 -4.47,-2.001 -4.47,-4.469 v -34.451 c 0,-2.469 2.002,-4.471 4.47,-4.471 h 19.059 c 0.41,-0.141 0.844,-0.234 1.303,-0.234 h 20.892 c 0.158,0 0.311,0.029 0.467,0.046 v -46.672 c 0,-2.218 1.799,-4.018 4.018,-4.018 h 24.507 c 2.219,0 4.018,1.8 4.018,4.018 v 57.049 c 0,2.219 -1.799,4.018 -4.018,4.018 H 4.018 c -0.161,0 -0.313,-0.029 -0.467,-0.047 v 18.625 c 0.154,-0.017 0.306,-0.047 0.467,-0.047 h 24.507 c 2.219,0 4.018,1.799 4.018,4.018 V 0 c 0,2.219 -1.799,4.018 -4.018,4.018 H 4.018 C 1.799,4.018 0,2.219 0,0 Z"
         style="fill:none;stroke:#0000ff;stroke-width:0.77475;stroke-linecap:round;stroke-linejoin:round;stroke-miterlimit:10;stroke-dasharray:none;stroke-opacity:1"
         id="path14336" />
    </g>
    <g
       id="g14338"
       transform="matrix(0.35277777,0,0,-0.35277777,142.49163,129.98086)"
       style="stroke-width:0.77475;stroke-dasharray:none">
      <path
         d="m 0,0 c 1.996,0 3.615,-1.619 3.615,-3.616 v -36.158 c 0,-1.997 -1.619,-3.617 -3.615,-3.617 -1.998,0 -3.615,1.62 -3.615,3.617 V -3.616 C -3.615,-1.619 -1.998,0 0,0 Z"
         style="fill:none;stroke:#0000ff;stroke-width:0.77475;stroke-linecap:round;stroke-linejoin:round;stroke-miterlimit:10;stroke-dasharray:none;stroke-opacity:1"
         id="path14340" />
    </g>
    <g
       id="g14342"
       transform="matrix(0.35277777,0,0,-0.35277777,150.28513,129.95535)"
       style="stroke-width:0.77475;stroke-dasharray:none">
      <path
         d="m 0,0 c 1.996,0 3.615,-1.617 3.615,-3.615 v -36.158 c 0,-1.998 -1.619,-3.616 -3.615,-3.616 -1.998,0 -3.615,1.618 -3.615,3.616 V -3.615 C -3.615,-1.617 -1.998,0 0,0 Z"
         style="fill:none;stroke:#0000ff;stroke-width:0.77475;stroke-linecap:round;stroke-linejoin:round;stroke-miterlimit:10;stroke-dasharray:none;stroke-opacity:1"
         id="path14344" />
    </g>
    <g
       id="g14346"
       transform="matrix(0.35277777,0,0,-0.35277777,142.49163,106.99862)"
       style="stroke-width:0.77475;stroke-dasharray:none">
      <path
         d="M 0,0 C 1.996,0 3.615,-0.811 3.615,-1.811 V -19.92 c 0,-1 -1.619,-1.811 -3.615,-1.811 -1.998,0 -3.615,0.811 -3.615,1.811 V -1.811 C -3.615,-0.811 -1.998,0 0,0 Z"
         style="fill:none;stroke:#0000ff;stroke-width:0.77475;stroke-linecap:round;stroke-linejoin:round;stroke-miterlimit:10;stroke-dasharray:none;stroke-opacity:1"
         id="path14348" />
    </g>
    <g
       id="g14350"
       transform="matrix(0.35277777,0,0,-0.35277777,150.28513,106.98585)"
       style="stroke-width:0.77475;stroke-dasharray:none">
      <path
         d="m 0,0 c 1.996,0 3.615,-0.811 3.615,-1.811 v -18.108 c 0,-1.002 -1.619,-1.811 -3.615,-1.811 -1.998,0 -3.615,0.809 -3.615,1.811 V -1.811 C -3.615,-0.811 -1.998,0 0,0 Z"
         style="fill:none;stroke:#0000ff;stroke-width:0.77475;stroke-linecap:round;stroke-linejoin:round;stroke-miterlimit:10;stroke-dasharray:none;stroke-opacity:1"
         id="path14352" />
    </g>
    <g
       id="g14354"
       transform="matrix(0.35277777,0,0,-0.35277777,142.36968,91.850522)"
       style="stroke-width:0.77475;stroke-dasharray:none">
      <path
         d="M 0,0 C 1.996,0 3.615,-0.812 3.615,-1.812 V -19.92 c 0,-1 -1.619,-1.812 -3.615,-1.812 -1.998,0 -3.615,0.812 -3.615,1.812 V -1.812 C -3.615,-0.812 -1.998,0 0,0 Z"
         style="fill:none;stroke:#0000ff;stroke-width:0.77475;stroke-linecap:round;stroke-linejoin:round;stroke-miterlimit:10;stroke-dasharray:none;stroke-opacity:1"
         id="path14356" />
    </g>
    <g
       id="g14358"
       transform="matrix(0.35277777,0,0,-0.35277777,150.28513,92.015199)"
       style="stroke-width:0.77475;stroke-dasharray:none">
      <path
         d="M 0,0 C 1.996,0 3.615,-0.812 3.615,-1.812 V -19.92 c 0,-1 -1.619,-1.811 -3.615,-1.811 -1.998,0 -3.615,0.811 -3.615,1.811 V -1.812 C -3.615,-0.812 -1.998,0 0,0 Z"
         style="fill:none;stroke:#0000ff;stroke-width:0.77475;stroke-linecap:round;stroke-linejoin:round;stroke-miterlimit:10;stroke-dasharray:none;stroke-opacity:1"
         id="path14360" />
    </g>
    <g
       id="g14362"
       transform="matrix(0.35277777,0,0,-0.35277777,137.47005,27.884081)"
       style="stroke-width:0.77475;stroke-dasharray:none">
      <path
         d="M 0,0 C 2.219,0 4.018,-1.799 4.018,-4.018 V -24.91 c 0,-2.217 -1.799,-4.018 -4.018,-4.018 h -35.355 c -2.219,0 -4.018,1.801 -4.018,4.018 v 20.892 c 0,2.219 1.799,4.018 4.018,4.018 z"
         style="fill:none;stroke:#0000ff;stroke-width:0.77475;stroke-linecap:round;stroke-linejoin:round;stroke-miterlimit:10;stroke-dasharray:none;stroke-opacity:1"
         id="path14364" />
    </g>
    <g
       id="g14366"
       transform="matrix(0.35277777,0,0,-0.35277777,111.20053,32.992444)"
       style="stroke-width:0.77475;stroke-dasharray:none">
      <path
         d="m 0,0 v -9.096 h -4.221 c -2.218,0 -4.017,-1.799 -4.017,-4.017 v -13.66 c 0,-2.219 1.799,-4.018 4.017,-4.018 h 6.428 c 2.221,0 4.018,1.799 4.018,4.018 v 9.095 H 24.91 c 2.219,0 4.018,1.799 4.018,4.018 V 0 c 0,2.219 -1.799,4.018 -4.018,4.018 H 4.018 C 1.799,4.018 0,2.219 0,0 Z"
         style="fill:none;stroke:#0000ff;stroke-width:0.77475;stroke-linecap:round;stroke-linejoin:round;stroke-miterlimit:10;stroke-dasharray:none;stroke-opacity:1"
         id="path14368" />
    </g>
    <g
       id="g14370"
       transform="matrix(0.35277777,0,0,-0.35277777,109.92513,47.953114)"
       style="stroke-width:0.77475;stroke-dasharray:none">
      <path
         d="m 0,0 v -7.309 c -0.156,0.02 -0.309,0.047 -0.467,0.047 h -5.437 c -0.434,0.141 -0.887,0.237 -1.366,0.237 h -34.451 c -2.468,0 -4.47,-2.002 -4.47,-4.471 v -34.451 c 0,-2.467 2.002,-4.469 4.47,-4.469 h 19.059 c 0.41,-0.143 0.844,-0.234 1.303,-0.234 h 20.892 c 0.158,0 0.311,0.027 0.467,0.046 v -46.673 c 0,-2.219 1.799,-4.018 4.018,-4.018 h 24.507 c 2.219,0 4.018,1.799 4.018,4.018 v 57.048 c 0,2.221 -1.799,4.02 -4.018,4.02 H 4.018 c -0.161,0 -0.313,-0.029 -0.467,-0.049 v 18.627 c 0.154,-0.019 0.306,-0.047 0.467,-0.047 h 24.507 c 2.219,0 4.018,1.799 4.018,4.018 V 0 c 0,2.217 -1.799,4.018 -4.018,4.018 H 4.018 C 1.799,4.018 0,2.217 0,0 Z"
         style="fill:none;stroke:#0000ff;stroke-width:0.77475;stroke-linecap:round;stroke-linejoin:round;stroke-miterlimit:10;stroke-dasharray:none;stroke-opacity:1"
         id="path14372" />
    </g>
    <g
       id="g14374"
       transform="matrix(0.35277777,0,0,-0.35277777,142.49163,69.655861)"
       style="stroke-width:0.77475;stroke-dasharray:none">
      <path
         d="m 0,0 c 1.996,0 3.615,-1.619 3.615,-3.617 v -36.158 c 0,-1.997 -1.619,-3.616 -3.615,-3.616 -1.998,0 -3.615,1.619 -3.615,3.616 V -3.617 C -3.615,-1.619 -1.998,0 0,0 Z"
         style="fill:none;stroke:#0000ff;stroke-width:0.77475;stroke-linecap:round;stroke-linejoin:round;stroke-miterlimit:10;stroke-dasharray:none;stroke-opacity:1"
         id="path14376" />
    </g>
    <g
       id="g14378"
       transform="matrix(0.35277777,0,0,-0.35277777,150.28513,69.630356)"
       style="stroke-width:0.77475;stroke-dasharray:none">
      <path
         d="m 0,0 c 1.996,0 3.615,-1.619 3.615,-3.615 v -36.159 c 0,-1.997 -1.619,-3.617 -3.615,-3.617 -1.998,0 -3.615,1.62 -3.615,3.617 V -3.615 C -3.615,-1.619 -1.998,0 0,0 Z"
         style="fill:none;stroke:#0000ff;stroke-width:0.77475;stroke-linecap:round;stroke-linejoin:round;stroke-miterlimit:10;stroke-dasharray:none;stroke-opacity:1"
         id="path14380" />
    </g>
    <g
       id="g14382"
       transform="matrix(0.35277777,0,0,-0.35277777,142.49163,46.673624)"
       style="stroke-width:0.77475;stroke-dasharray:none">
      <path
         d="M 0,0 C 1.996,0 3.615,-0.813 3.615,-1.813 V -19.92 c 0,-1.002 -1.619,-1.812 -3.615,-1.812 -1.998,0 -3.615,0.81 -3.615,1.812 V -1.813 C -3.615,-0.813 -1.998,0 0,0 Z"
         style="fill:none;stroke:#0000ff;stroke-width:0.77475;stroke-linecap:round;stroke-linejoin:round;stroke-miterlimit:10;stroke-dasharray:none;stroke-opacity:1"
         id="path14384" />
    </g>
    <g
       id="g14386"
       transform="matrix(0.35277777,0,0,-0.35277777,150.28513,46.661207)"
       style="stroke-width:0.77475;stroke-dasharray:none">
      <path
         d="M 0,0 C 1.996,0 3.615,-0.811 3.615,-1.811 V -19.92 c 0,-1 -1.619,-1.81 -3.615,-1.81 -1.998,0 -3.615,0.81 -3.615,1.81 V -1.811 C -3.615,-0.811 -1.998,0 0,0 Z"
         style="fill:none;stroke:#0000ff;stroke-width:0.77475;stroke-linecap:round;stroke-linejoin:round;stroke-miterlimit:10;stroke-dasharray:none;stroke-opacity:1"
         id="path14388" />
    </g>
    <g
       id="g14390"
       transform="matrix(0.35277777,0,0,-0.35277777,142.36968,31.526229)"
       style="stroke-width:0.77475;stroke-dasharray:none">
      <path
         d="M 0,0 C 1.996,0 3.615,-0.811 3.615,-1.811 V -19.92 c 0,-1 -1.619,-1.81 -3.615,-1.81 -1.998,0 -3.615,0.81 -3.615,1.81 V -1.811 C -3.615,-0.811 -1.998,0 0,0 Z"
         style="fill:none;stroke:#0000ff;stroke-width:0.77475;stroke-linecap:round;stroke-linejoin:round;stroke-miterlimit:10;stroke-dasharray:none;stroke-opacity:1"
         id="path14392" />
    </g>
    <g
       id="g14394"
       transform="matrix(0.35277777,0,0,-0.35277777,150.28513,31.690906)"
       style="stroke-width:0.77475;stroke-dasharray:none">
      <path
         d="M 0,0 C 1.996,0 3.615,-0.811 3.615,-1.811 V -19.92 c 0,-1 -1.619,-1.81 -3.615,-1.81 -1.998,0 -3.615,0.81 -3.615,1.81 V -1.811 C -3.615,-0.811 -1.998,0 0,0 Z"
         style="fill:none;stroke:#0000ff;stroke-width:0.77475;stroke-linecap:round;stroke-linejoin:round;stroke-miterlimit:10;stroke-dasharray:none;stroke-opacity:1"
         id="path14396" />
    </g>
    <g
       id="g14398"
       transform="matrix(0.35277777,0,0,-0.35277777,153.68887,233.00004)"
       style="stroke-width:0.77475;stroke-dasharray:none">
      <path
         d="M 0,0 C 0,2.219 1.424,4.018 3.182,4.018 H 19.721 C 21.477,4.018 22.9,2.219 22.9,0 v -35.355 c 0,-2.219 -1.423,-4.018 -3.179,-4.018 H 3.182 C 1.424,-39.373 0,-37.574 0,-35.355 Z"
         style="fill:none;stroke:#0000ff;stroke-width:0.77475;stroke-linecap:round;stroke-linejoin:round;stroke-miterlimit:10;stroke-dasharray:none;stroke-opacity:1"
         id="path14400" />
    </g>
    <g
       id="g14402"
       transform="matrix(0.35277777,0,0,-0.35277777,153.68887,172.58685)"
       style="stroke-width:0.77475;stroke-dasharray:none">
      <path
         d="M 0,0 C 0,2.219 1.424,4.018 3.182,4.018 H 19.721 C 21.477,4.018 22.9,2.219 22.9,0 v -35.355 c 0,-2.219 -1.423,-4.018 -3.179,-4.018 H 3.182 C 1.424,-39.373 0,-37.574 0,-35.355 Z"
         style="fill:none;stroke:#0000ff;stroke-width:0.77475;stroke-linecap:round;stroke-linejoin:round;stroke-miterlimit:10;stroke-dasharray:none;stroke-opacity:1"
         id="path14404" />
    </g>
    <g
       id="g14406"
       transform="matrix(0.35277777,0,0,-0.35277777,153.68887,112.17384)"
       style="stroke-width:0.77475;stroke-dasharray:none">
      <path
         d="M 0,0 C 0,2.219 1.424,4.018 3.182,4.018 H 19.721 C 21.477,4.018 22.9,2.219 22.9,0 v -35.355 c 0,-2.218 -1.423,-4.018 -3.179,-4.018 H 3.182 c -1.758,0 -3.182,1.8 -3.182,4.018 z"
         style="fill:none;stroke:#0000ff;stroke-width:0.77475;stroke-linecap:round;stroke-linejoin:round;stroke-miterlimit:10;stroke-dasharray:none;stroke-opacity:1"
         id="path14408" />
    </g>
    <g
       id="g14410"
       transform="matrix(0.35277777,0,0,-0.35277777,153.68887,51.848839)"
       style="stroke-width:0.77475;stroke-dasharray:none">
      <path
         d="M 0,0 C 0,2.219 1.424,4.018 3.182,4.018 H 19.721 C 21.477,4.018 22.9,2.219 22.9,0 v -35.355 c 0,-2.219 -1.423,-4.018 -3.179,-4.018 H 3.182 C 1.424,-39.373 0,-37.574 0,-35.355 Z"
         style="fill:none;stroke:#0000ff;stroke-width:0.77475;stroke-linecap:round;stroke-linejoin:round;stroke-miterlimit:10;stroke-dasharray:none;stroke-opacity:1"
         id="path14412" />
    </g>
    <g
       id="g14414"
       transform="matrix(0.35277777,0,0,-0.35277777,56.149097,223.20908)"
       style="stroke-width:0.77475;stroke-dasharray:none">
      <path
         d="m 0,0 c -1.572,0 -2.847,-1.275 -2.847,-2.848 0,-1.572 1.275,-2.847 2.847,-2.847 1.573,0 2.848,1.275 2.848,2.847 C 2.848,-1.275 1.573,0 0,0 Z"
         style="fill:none;stroke:#0000ff;stroke-width:0.77475;stroke-linecap:round;stroke-linejoin:round;stroke-miterlimit:10;stroke-dasharray:none;stroke-opacity:1"
         id="path14416" />
    </g>
    <g
       id="g14418"
       transform="matrix(0.35277777,0,0,-0.35277777,56.149097,162.73733)"
       style="stroke-width:0.77475;stroke-dasharray:none">
      <path
         d="m 0,0 c -1.572,0 -2.847,-1.275 -2.847,-2.848 0,-1.572 1.275,-2.847 2.847,-2.847 1.573,0 2.848,1.275 2.848,2.847 C 2.848,-1.275 1.573,0 0,0 Z"
         style="fill:none;stroke:#0000ff;stroke-width:0.77475;stroke-linecap:round;stroke-linejoin:round;stroke-miterlimit:10;stroke-dasharray:none;stroke-opacity:1"
         id="path14420" />
    </g>
    <g
       id="g14422"
       transform="matrix(0.35277777,0,0,-0.35277777,86.281293,192.86949)"
       style="stroke-width:0.77475;stroke-dasharray:none">
      <path
         d="m 0,0 c -1.572,0 -2.848,-1.273 -2.848,-2.846 0,-1.572 1.276,-2.847 2.848,-2.847 1.572,0 2.848,1.275 2.848,2.847 C 2.848,-1.273 1.572,0 0,0 Z"
         style="fill:none;stroke:#0000ff;stroke-width:0.77475;stroke-linecap:round;stroke-linejoin:round;stroke-miterlimit:10;stroke-dasharray:none;stroke-opacity:1"
         id="path14424" />
    </g>
    <g
       id="g14426"
       transform="matrix(0.35277777,0,0,-0.35277777,86.281293,162.73733)"
       style="stroke-width:0.77475;stroke-dasharray:none">
      <path
         d="m 0,0 c -1.572,0 -2.848,-1.275 -2.848,-2.848 0,-1.572 1.276,-2.847 2.848,-2.847 1.572,0 2.848,1.275 2.848,2.847 C 2.848,-1.275 1.572,0 0,0 Z"
         style="fill:none;stroke:#0000ff;stroke-width:0.77475;stroke-linecap:round;stroke-linejoin:round;stroke-miterlimit:10;stroke-dasharray:none;stroke-opacity:1"
         id="path14428" />
    </g>
    <g
       id="g14430"
       transform="matrix(0.35277777,0,0,-0.35277777,56.149097,102.38288)"
       style="stroke-width:0.77475;stroke-dasharray:none">
      <path
         d="m 0,0 c -1.572,0 -2.847,-1.275 -2.847,-2.848 0,-1.572 1.275,-2.847 2.847,-2.847 1.573,0 2.848,1.275 2.848,2.847 C 2.848,-1.275 1.573,0 0,0 Z"
         style="fill:none;stroke:#0000ff;stroke-width:0.77475;stroke-linecap:round;stroke-linejoin:round;stroke-miterlimit:10;stroke-dasharray:none;stroke-opacity:1"
         id="path14432" />
    </g>
    <g
       id="g14434"
       transform="matrix(0.35277777,0,0,-0.35277777,86.281293,132.51507)"
       style="stroke-width:0.77475;stroke-dasharray:none">
      <path
         d="m 0,0 c -1.572,0 -2.848,-1.275 -2.848,-2.848 0,-1.572 1.276,-2.846 2.848,-2.846 1.572,0 2.848,1.274 2.848,2.846 C 2.848,-1.275 1.572,0 0,0 Z"
         style="fill:none;stroke:#0000ff;stroke-width:0.77475;stroke-linecap:round;stroke-linejoin:round;stroke-miterlimit:10;stroke-dasharray:none;stroke-opacity:1"
         id="path14436" />
    </g>
    <g
       id="g14438"
       transform="matrix(0.35277777,0,0,-0.35277777,86.281293,102.38288)"
       style="stroke-width:0.77475;stroke-dasharray:none">
      <path
         d="m 0,0 c -1.572,0 -2.848,-1.275 -2.848,-2.848 0,-1.572 1.276,-2.847 2.848,-2.847 1.572,0 2.848,1.275 2.848,2.847 C 2.848,-1.275 1.572,0 0,0 Z"
         style="fill:none;stroke:#0000ff;stroke-width:0.77475;stroke-linecap:round;stroke-linejoin:round;stroke-miterlimit:10;stroke-dasharray:none;stroke-opacity:1"
         id="path14440" />
    </g>
    <g
       id="g14442"
       transform="matrix(0.35277777,0,0,-0.35277777,56.149097,42.028952)"
       style="stroke-width:0.77475;stroke-dasharray:none">
      <path
         d="m 0,0 c -1.572,0 -2.847,-1.275 -2.847,-2.848 0,-1.572 1.275,-2.847 2.847,-2.847 1.573,0 2.848,1.275 2.848,2.847 C 2.848,-1.275 1.573,0 0,0 Z"
         style="fill:none;stroke:#0000ff;stroke-width:0.77475;stroke-linecap:round;stroke-linejoin:round;stroke-miterlimit:10;stroke-dasharray:none;stroke-opacity:1"
         id="path14444" />
    </g>
    <g
       id="g14446"
       transform="matrix(0.35277777,0,0,-0.35277777,86.281293,72.161113)"
       style="stroke-width:0.77475;stroke-dasharray:none">
      <path
         d="m 0,0 c -1.572,0 -2.848,-1.273 -2.848,-2.846 0,-1.572 1.276,-2.847 2.848,-2.847 1.572,0 2.848,1.275 2.848,2.847 C 2.848,-1.273 1.572,0 0,0 Z"
         style="fill:none;stroke:#0000ff;stroke-width:0.77475;stroke-linecap:round;stroke-linejoin:round;stroke-miterlimit:10;stroke-dasharray:none;stroke-opacity:1"
         id="path14448" />
    </g>
    <g
       id="g14450"
       transform="matrix(0.35277777,0,0,-0.35277777,86.281293,42.028952)"
       style="stroke-width:0.77475;stroke-dasharray:none">
      <path
         d="m 0,0 c -1.572,0 -2.848,-1.275 -2.848,-2.848 0,-1.572 1.276,-2.847 2.848,-2.847 1.572,0 2.848,1.275 2.848,2.847 C 2.848,-1.275 1.572,0 0,0 Z"
         style="fill:none;stroke:#0000ff;stroke-width:0.77475;stroke-linecap:round;stroke-linejoin:round;stroke-miterlimit:10;stroke-dasharray:none;stroke-opacity:1"
         id="path14452" />
    </g>
    <g
       id="g14454"
       transform="matrix(0.35277777,0,0,-0.35277777,116.50391,223.20908)"
       style="stroke-width:0.77475;stroke-dasharray:none">
      <path
         d="m 0,0 c -1.572,0 -2.848,-1.275 -2.848,-2.848 0,-1.572 1.276,-2.847 2.848,-2.847 1.572,0 2.846,1.275 2.846,2.847 C 2.846,-1.275 1.572,0 0,0 Z"
         style="fill:none;stroke:#0000ff;stroke-width:0.77475;stroke-linecap:round;stroke-linejoin:round;stroke-miterlimit:10;stroke-dasharray:none;stroke-opacity:1"
         id="path14456" />
    </g>
    <g
       id="g14458"
       transform="matrix(0.35277777,0,0,-0.35277777,146.6354,253.34128)"
       style="stroke-width:0.77475;stroke-dasharray:none">
      <path
         d="m 0,0 c -1.572,0 -2.846,-1.275 -2.846,-2.848 0,-1.572 1.274,-2.847 2.846,-2.847 1.572,0 2.848,1.275 2.848,2.847 C 2.848,-1.275 1.572,0 0,0 Z"
         style="fill:none;stroke:#0000ff;stroke-width:0.77475;stroke-linecap:round;stroke-linejoin:round;stroke-miterlimit:10;stroke-dasharray:none;stroke-opacity:1"
         id="path14460" />
    </g>
    <g
       id="g14462"
       transform="matrix(0.35277777,0,0,-0.35277777,146.6354,223.20908)"
       style="stroke-width:0.77475;stroke-dasharray:none">
      <path
         d="m 0,0 c -1.572,0 -2.846,-1.275 -2.846,-2.848 0,-1.572 1.274,-2.847 2.846,-2.847 1.572,0 2.848,1.275 2.848,2.847 C 2.848,-1.275 1.572,0 0,0 Z"
         style="fill:none;stroke:#0000ff;stroke-width:0.77475;stroke-linecap:round;stroke-linejoin:round;stroke-miterlimit:10;stroke-dasharray:none;stroke-opacity:1"
         id="path14464" />
    </g>
    <g
       id="g14466"
       transform="matrix(0.35277777,0,0,-0.35277777,116.50391,162.73733)"
       style="stroke-width:0.77475;stroke-dasharray:none">
      <path
         d="m 0,0 c -1.572,0 -2.848,-1.275 -2.848,-2.848 0,-1.572 1.276,-2.847 2.848,-2.847 1.572,0 2.846,1.275 2.846,2.847 C 2.846,-1.275 1.572,0 0,0 Z"
         style="fill:none;stroke:#0000ff;stroke-width:0.77475;stroke-linecap:round;stroke-linejoin:round;stroke-miterlimit:10;stroke-dasharray:none;stroke-opacity:1"
         id="path14468" />
    </g>
    <g
       id="g14470"
       transform="matrix(0.35277777,0,0,-0.35277777,146.6354,192.86949)"
       style="stroke-width:0.77475;stroke-dasharray:none">
      <path
         d="m 0,0 c -1.572,0 -2.846,-1.273 -2.846,-2.846 0,-1.572 1.274,-2.847 2.846,-2.847 1.572,0 2.848,1.275 2.848,2.847 C 2.848,-1.273 1.572,0 0,0 Z"
         style="fill:none;stroke:#0000ff;stroke-width:0.77475;stroke-linecap:round;stroke-linejoin:round;stroke-miterlimit:10;stroke-dasharray:none;stroke-opacity:1"
         id="path14472" />
    </g>
    <g
       id="g14474"
       transform="matrix(0.35277777,0,0,-0.35277777,146.6354,162.73733)"
       style="stroke-width:0.77475;stroke-dasharray:none">
      <path
         d="m 0,0 c -1.572,0 -2.846,-1.275 -2.846,-2.848 0,-1.572 1.274,-2.847 2.846,-2.847 1.572,0 2.848,1.275 2.848,2.847 C 2.848,-1.275 1.572,0 0,0 Z"
         style="fill:none;stroke:#0000ff;stroke-width:0.77475;stroke-linecap:round;stroke-linejoin:round;stroke-miterlimit:10;stroke-dasharray:none;stroke-opacity:1"
         id="path14476" />
    </g>
    <g
       id="g14478"
       transform="matrix(0.35277777,0,0,-0.35277777,116.50391,102.38288)"
       style="stroke-width:0.77475;stroke-dasharray:none">
      <path
         d="m 0,0 c -1.572,0 -2.848,-1.275 -2.848,-2.848 0,-1.572 1.276,-2.847 2.848,-2.847 1.572,0 2.846,1.275 2.846,2.847 C 2.846,-1.275 1.572,0 0,0 Z"
         style="fill:none;stroke:#0000ff;stroke-width:0.77475;stroke-linecap:round;stroke-linejoin:round;stroke-miterlimit:10;stroke-dasharray:none;stroke-opacity:1"
         id="path14480" />
    </g>
    <g
       id="g14482"
       transform="matrix(0.35277777,0,0,-0.35277777,146.6354,132.51507)"
       style="stroke-width:0.77475;stroke-dasharray:none">
      <path
         d="m 0,0 c -1.572,0 -2.846,-1.275 -2.846,-2.848 0,-1.572 1.274,-2.846 2.846,-2.846 1.572,0 2.848,1.274 2.848,2.846 C 2.848,-1.275 1.572,0 0,0 Z"
         style="fill:none;stroke:#0000ff;stroke-width:0.77475;stroke-linecap:round;stroke-linejoin:round;stroke-miterlimit:10;stroke-dasharray:none;stroke-opacity:1"
         id="path14484" />
    </g>
    <g
       id="g14486"
       transform="matrix(0.35277777,0,0,-0.35277777,146.6354,102.38288)"
       style="stroke-width:0.77475;stroke-dasharray:none">
      <path
         d="m 0,0 c -1.572,0 -2.846,-1.275 -2.846,-2.848 0,-1.572 1.274,-2.847 2.846,-2.847 1.572,0 2.848,1.275 2.848,2.847 C 2.848,-1.275 1.572,0 0,0 Z"
         style="fill:none;stroke:#0000ff;stroke-width:0.77475;stroke-linecap:round;stroke-linejoin:round;stroke-miterlimit:10;stroke-dasharray:none;stroke-opacity:1"
         id="path14488" />
    </g>
    <g
       id="g14490"
       transform="matrix(0.35277777,0,0,-0.35277777,116.50391,42.028952)"
       style="stroke-width:0.77475;stroke-dasharray:none">
      <path
         d="m 0,0 c -1.572,0 -2.848,-1.275 -2.848,-2.848 0,-1.572 1.276,-2.847 2.848,-2.847 1.572,0 2.846,1.275 2.846,2.847 C 2.846,-1.275 1.572,0 0,0 Z"
         style="fill:none;stroke:#0000ff;stroke-width:0.77475;stroke-linecap:round;stroke-linejoin:round;stroke-miterlimit:10;stroke-dasharray:none;stroke-opacity:1"
         id="path14492" />
    </g>
    <g
       id="g14494"
       transform="matrix(0.35277777,0,0,-0.35277777,146.6354,72.161113)"
       style="stroke-width:0.77475;stroke-dasharray:none">
      <path
         d="m 0,0 c -1.572,0 -2.846,-1.273 -2.846,-2.846 0,-1.572 1.274,-2.847 2.846,-2.847 1.572,0 2.848,1.275 2.848,2.847 C 2.848,-1.273 1.572,0 0,0 Z"
         style="fill:none;stroke:#0000ff;stroke-width:0.77475;stroke-linecap:round;stroke-linejoin:round;stroke-miterlimit:10;stroke-dasharray:none;stroke-opacity:1"
         id="path14496" />
    </g>
    <g
       id="g14498"
       transform="matrix(0.35277777,0,0,-0.35277777,146.6354,42.028952)"
       style="stroke-width:0.77475;stroke-dasharray:none">
      <path
         d="m 0,0 c -1.572,0 -2.846,-1.275 -2.846,-2.848 0,-1.572 1.274,-2.847 2.846,-2.847 1.572,0 2.848,1.275 2.848,2.847 C 2.848,-1.275 1.572,0 0,0 Z"
         style="fill:none;stroke:#0000ff;stroke-width:0.77475;stroke-linecap:round;stroke-linejoin:round;stroke-miterlimit:10;stroke-dasharray:none;stroke-opacity:1"
         id="path14500" />
    </g>
    <g
       id="g14502"
       transform="matrix(0.35277777,0,0,-0.35277777,125.17518,227.06138)"
       style="stroke-width:0.77475;stroke-dasharray:none">
      <path
         d="m 0,0 v -47.484 -20.893 -3.137 c 0,-2.218 1.799,-4.017 4.018,-4.017 h 26.314 3.914 2.713 c 2.084,0 3.771,1.799 3.771,4.017 v 40.188 c 0,2.219 -1.687,4.017 -3.771,4.017 H 34.35 V 0 c 0,2.219 -1.799,4.018 -4.018,4.018 H 4.018 C 1.799,4.018 0,2.219 0,0 Z"
         style="fill:none;stroke:#0000ff;stroke-width:0.77475;stroke-linecap:round;stroke-linejoin:round;stroke-miterlimit:10;stroke-dasharray:none;stroke-opacity:1"
         id="path14504" />
    </g>
    <g
       id="g14506"
       transform="matrix(0.35277777,0,0,-0.35277777,125.17518,166.64819)"
       style="stroke-width:0.77475;stroke-dasharray:none">
      <path
         d="m 0,0 v -47.484 -20.893 -3.137 c 0,-2.218 1.799,-4.017 4.018,-4.017 h 26.314 3.914 2.713 c 2.084,0 3.771,1.799 3.771,4.017 v 40.188 c 0,2.219 -1.687,4.017 -3.771,4.017 H 34.35 V 0 c 0,2.219 -1.799,4.018 -4.018,4.018 H 4.018 C 1.799,4.018 0,2.219 0,0 Z"
         style="fill:none;stroke:#0000ff;stroke-width:0.77475;stroke-linecap:round;stroke-linejoin:round;stroke-miterlimit:10;stroke-dasharray:none;stroke-opacity:1"
         id="path14508" />
    </g>
    <g
       id="g14510"
       transform="matrix(0.35277777,0,0,-0.35277777,125.17518,106.23518)"
       style="stroke-width:0.77475;stroke-dasharray:none">
      <path
         d="m 0,0 v -47.484 -20.893 -3.137 c 0,-2.218 1.799,-4.017 4.018,-4.017 h 26.314 3.914 2.713 c 2.084,0 3.771,1.799 3.771,4.017 v 40.189 c 0,2.219 -1.687,4.017 -3.771,4.017 H 34.35 V 0 c 0,2.219 -1.799,4.018 -4.018,4.018 H 4.018 C 1.799,4.018 0,2.219 0,0 Z"
         style="fill:none;stroke:#0000ff;stroke-width:0.77475;stroke-linecap:round;stroke-linejoin:round;stroke-miterlimit:10;stroke-dasharray:none;stroke-opacity:1"
         id="path14512" />
    </g>
    <g
       id="g14514"
       transform="matrix(0.35277777,0,0,-0.35277777,125.17518,45.910178)"
       style="stroke-width:0.77475;stroke-dasharray:none">
      <path
         d="m 0,0 v -47.486 -20.891 -3.137 c 0,-2.218 1.799,-4.017 4.018,-4.017 h 26.314 3.914 2.713 c 2.084,0 3.771,1.797 3.771,4.017 v 40.188 c 0,2.219 -1.687,4.017 -3.771,4.017 H 34.35 V 0 c 0,2.219 -1.799,4.018 -4.018,4.018 H 4.018 C 1.799,4.018 0,2.219 0,0 Z"
         style="fill:none;stroke:#0000ff;stroke-width:0.77475;stroke-linecap:round;stroke-linejoin:round;stroke-miterlimit:10;stroke-dasharray:none;stroke-opacity:1"
         id="path14516" />
    </g>
    <g
       id="g14518"
       transform="matrix(0.35277777,0,0,-0.35277777,65.115649,45.910178)"
       style="stroke-width:0.77475;stroke-dasharray:none">
      <path
         d="m 0,0 v -47.486 -20.891 -3.137 c 0,-2.218 1.799,-4.017 4.018,-4.017 h 26.315 3.914 2.713 c 2.083,0 3.771,1.797 3.771,4.017 v 40.188 c 0,2.219 -1.688,4.017 -3.771,4.017 H 34.351 V 0 c 0,2.219 -1.799,4.018 -4.018,4.018 H 4.018 C 1.799,4.018 0,2.219 0,0 Z"
         style="fill:none;stroke:#0000ff;stroke-width:0.77475;stroke-linecap:round;stroke-linejoin:round;stroke-miterlimit:10;stroke-dasharray:none;stroke-opacity:1"
         id="path14520" />
    </g>
    <g
       id="g14522"
       transform="matrix(0.35277777,0,0,-0.35277777,65.115649,106.23518)"
       style="stroke-width:0.77475;stroke-dasharray:none">
      <path
         d="m 0,0 v -47.484 -20.893 -3.137 c 0,-2.218 1.799,-4.017 4.018,-4.017 h 26.315 3.914 2.713 c 2.083,0 3.771,1.799 3.771,4.017 v 40.189 c 0,2.219 -1.688,4.017 -3.771,4.017 H 34.351 V 0 c 0,2.219 -1.799,4.018 -4.018,4.018 H 4.018 C 1.799,4.018 0,2.219 0,0 Z"
         style="fill:none;stroke:#0000ff;stroke-width:0.77475;stroke-linecap:round;stroke-linejoin:round;stroke-miterlimit:10;stroke-dasharray:none;stroke-opacity:1"
         id="path14524" />
    </g>
    <g
       id="g14526"
       transform="matrix(0.35277777,0,0,-0.35277777,65.115649,166.64819)"
       style="stroke-width:0.77475;stroke-dasharray:none">
      <path
         d="m 0,0 v -47.484 -20.893 -3.137 c 0,-2.218 1.799,-4.017 4.018,-4.017 h 26.315 3.914 2.713 c 2.083,0 3.771,1.799 3.771,4.017 v 40.188 c 0,2.219 -1.688,4.017 -3.771,4.017 H 34.351 V 0 c 0,2.219 -1.799,4.018 -4.018,4.018 H 4.018 C 1.799,4.018 0,2.219 0,0 Z"
         style="fill:none;stroke:#0000ff;stroke-width:0.77475;stroke-linecap:round;stroke-linejoin:round;stroke-miterlimit:10;stroke-dasharray:none;stroke-opacity:1"
         id="path14528" />
    </g>
    <g
       id="g14530"
       transform="matrix(0.35277777,0,0,-0.35277777,78.828509,216.51043)"
       style="stroke-width:0.77475;stroke-dasharray:none" />
    <g
       id="g14534"
       transform="matrix(0.35277777,0,0,-0.35277777,82.507523,278.2941)"
       style="stroke-width:0.77475;stroke-dasharray:none"
       inkscape:label="TeensyPlus">
      <path
         d="m -31.098485,0 0.06528,12.978406 0.04343,8.634232 c 0,0 -0.536452,3.948523 -4.854013,3.927185 L -46.452994,25.641 c -4.435,0 -5.754,1.396 -5.754,4.017 0,1.03 0.007,15.533 0.017,30.842 10e-4,1.732 2.836,3.514 2.837,5.334 0.021,33.25 0.053,79.471 0.053,79.471 0,2.218 1.8,4.017 4.018,4.017 h 23.434 c 0,0 3.062,-0.363 3.062,3.701 V 164.4 c 0,2.401 -3.032,2.573 -3.032,2.573 h -27.984 c -2.219,0 -4.017,1.798 -4.017,4.017 v 49.819 c 0,2.218 1.798,4.017 4.017,4.017 h 35.355 c 2.218,0 4.016543,-1.799 4.018,-4.017 l 0.01917,-29.17973 c -0.165753,-3.60488 3.2080056,-3.60667 3.2080056,-3.60667 H 12.337294 42.052866 c 3.254117,0 3.011827,-3.41279 3.011827,-3.41279 l 0.142808,-22.82971 0.185235,-29.6121 c 0.023,0.002 0.045,0.008 0.068,0.008 H 77.35 c 0.16,0 0.313,-0.03 0.469,-0.047 v 7.307 c 0,2.218 1.799,4.017 4.017,4.017 h 24.506 c 2.221,0 4.018,-1.799 4.018,-4.017 v -13.661 c 0,-2.218 -1.797,-4.017 -4.018,-4.017 H 81.836 c -0.162,0 -0.312,0.029 -0.468,0.047 V 103.18 c 0.156,0.017 0.306,0.047 0.468,0.047 h 24.506 c 2.221,0 4.018,-1.799 4.018,-4.018 V 42.16 c 0,-2.221 -1.797,-4.017 -4.018,-4.017 H 81.836 c -2.218,0 -4.017,1.796 -4.017,3.015 v 46.674 c -0.156,0.982 -0.309005,0.951712 -0.469,0.953 l -32.593576,0.262434 c -0.023,1.85e-4 -0.045,0.006 -0.068,0.006 0.184414,-20.608353 0.298309,-31.489975 0.3676,-41.566756 0.08205,-11.932176 0.10156,-22.735842 0.10156,-47.22424353"
         style="fill:none;stroke:#0000ff;stroke-width:0.77475;stroke-linecap:round;stroke-linejoin:round;stroke-miterlimit:10;stroke-dasharray:none;stroke-opacity:1"
         id="path14536"
         inkscape:label="TeensyPlus_Path"
         sodipodi:nodetypes="cccccssccscsscsssssscccccccsscsssssssccssssssscsscsc" />
    </g>
    <g
       id="g14538"
       transform="matrix(0.35277777,0,0,-0.35277777,39.048688,274.12345)"
       style="stroke-width:0.77475;stroke-dasharray:none">
      <path
         d="M 0,0 -6.661,-3.848 -13.323,0 V 7.691 L -6.661,11.537 0,7.691 Z"
         style="fill:none;stroke:#0000ff;stroke-width:0.77475;stroke-linecap:round;stroke-linejoin:round;stroke-miterlimit:10;stroke-dasharray:none;stroke-opacity:1"
         id="path14540" />
    </g>
    <g
       id="g14542"
       transform="matrix(0.35277777,0,0,-0.35277777,39.048688,150.12415)"
       style="stroke-width:0.77475;stroke-dasharray:none">
      <path
         d="M 0,0 -6.661,-3.846 -13.323,0 V 7.693 L -6.661,11.539 0,7.693 Z"
         style="fill:none;stroke:#0000ff;stroke-width:0.77475;stroke-linecap:round;stroke-linejoin:round;stroke-miterlimit:10;stroke-dasharray:none;stroke-opacity:1"
         id="path14544" />
    </g>
    <g
       id="g14546"
       transform="matrix(0.35277777,0,0,-0.35277777,39.048336,26.123614)"
       style="stroke-width:0.77475;stroke-dasharray:none">
      <path
         d="M 0,0 -6.661,-3.846 -13.322,0 V 7.691 L -6.661,11.539 0,7.691 Z"
         style="fill:none;stroke:#0000ff;stroke-width:0.77475;stroke-linecap:round;stroke-linejoin:round;stroke-miterlimit:10;stroke-dasharray:none;stroke-opacity:1"
         id="path14548" />
    </g>
    <g
       id="g14550"
       transform="matrix(0.35277777,0,0,-0.35277777,167.04828,26.123614)"
       style="stroke-width:0.77475;stroke-dasharray:none">
      <path
         d="M 0,0 -6.66,-3.846 -13.322,0 V 7.691 L -6.66,11.539 0,7.691 Z"
         style="fill:none;stroke:#0000ff;stroke-width:0.77475;stroke-linecap:round;stroke-linejoin:round;stroke-miterlimit:10;stroke-dasharray:none;stroke-opacity:1"
         id="path14552" />
    </g>
    <g
       id="g14554"
       transform="matrix(0.35277777,0,0,-0.35277777,167.04828,150.12345)"
       style="stroke-width:0.77475;stroke-dasharray:none">
      <path
         d="M 0,0 -6.66,-3.846 -13.322,0 V 7.691 L -6.66,11.539 0,7.691 Z"
         style="fill:none;stroke:#0000ff;stroke-width:0.77475;stroke-linecap:round;stroke-linejoin:round;stroke-miterlimit:10;stroke-dasharray:none;stroke-opacity:1"
         id="path14556" />
    </g>
    <g
       id="g14558"
       transform="matrix(0.35277777,0,0,-0.35277777,167.04828,274.12345)"
       style="stroke-width:0.77475;stroke-dasharray:none">
      <path
         d="M 0,0 -6.66,-3.848 -13.322,0 V 7.691 L -6.66,11.539 0,7.691 Z"
         style="fill:none;stroke:#0000ff;stroke-width:0.77475;stroke-linecap:round;stroke-linejoin:round;stroke-miterlimit:10;stroke-dasharray:none;stroke-opacity:1"
         id="path14560" />
    </g>
    <g
       id="g14562"
       transform="matrix(0.35277777,0,0,-0.35277777,166.76095,278.2941)"
       style="stroke-width:0.77475;stroke-dasharray:none">
      <path
         d="M 0,0 0.24,0.004 0.48,0.018 0.719,0.037 0.957,0.064 1.195,0.1 1.43,0.145 1.664,0.195 1.898,0.256 2.129,0.322 2.355,0.396 2.582,0.479 2.805,0.568 3.023,0.666 3.24,0.771 3.453,0.883 3.66,1 3.865,1.127 4.066,1.258 4.262,1.396 4.453,1.543 4.639,1.693 4.82,1.852 4.996,2.016 5.166,2.184 5.33,2.359 5.488,2.539 5.641,2.725 5.785,2.916 5.926,3.111 6.059,3.311 6.186,3.514 6.305,3.723 6.418,3.936 6.523,4.15 6.621,4.369 6.711,4.592 6.795,4.816 6.871,5.045 6.938,5.275 7,5.508 7.051,5.74 7.096,5.977 7.133,6.215 7.16,6.453 7.184,6.691 7.195,6.932 7.199,7.172 v 0.029"
         style="fill:none;stroke:#0000ff;stroke-width:0.77475;stroke-linecap:round;stroke-linejoin:round;stroke-miterlimit:10;stroke-dasharray:none;stroke-opacity:1"
         id="path14564" />
    </g>
    <g
       id="g14566"
       transform="matrix(0.35277777,0,0,-0.35277777,169.30066,275.75368)"
       style="stroke-width:0.77475;stroke-dasharray:none">
      <path
         d="M 0,0 V 720"
         style="fill:none;stroke:#0000ff;stroke-width:0.77475;stroke-linecap:round;stroke-linejoin:round;stroke-miterlimit:10;stroke-dasharray:none;stroke-opacity:1"
         id="path14568" />
    </g>
    <g
       id="g14570"
       transform="matrix(0.35277777,0,0,-0.35277777,169.30066,21.753861)"
       style="stroke-width:0.77475;stroke-dasharray:none">
      <path
         d="M 0,0 -0.004,0.24 -0.016,0.48 -0.035,0.719 -0.063,0.957 -0.098,1.195 -0.143,1.43 -0.193,1.664 -0.254,1.896 -0.32,2.127 -0.395,2.355 -0.477,2.582 -0.566,2.805 -0.664,3.023 -0.77,3.24 -0.879,3.451 -1,3.66 -1.125,3.865 -1.256,4.064 -1.395,4.262 -1.539,4.453 -1.691,4.639 -1.85,4.818 -2.012,4.994 -2.184,5.164 -2.357,5.33 -2.537,5.488 -2.723,5.641 -2.914,5.785 -3.11,5.926 -3.309,6.059 -3.512,6.186 -3.721,6.305 -3.934,6.416 -4.148,6.521 -4.367,6.619 -4.59,6.711 -4.814,6.793 -5.043,6.869 -5.273,6.938 -5.504,6.998 -5.738,7.051 -5.975,7.096 -6.211,7.133 -6.449,7.16 -6.689,7.182 -6.93,7.195 -7.168,7.199 h -0.031"
         style="fill:none;stroke:#0000ff;stroke-width:0.77475;stroke-linecap:round;stroke-linejoin:round;stroke-miterlimit:10;stroke-dasharray:none;stroke-opacity:1"
         id="path14572" />
    </g>
    <g
       id="g14574"
       transform="matrix(0.35277777,0,0,-0.35277777,166.76095,19.214144)"
       style="stroke-width:0.77475;stroke-dasharray:none">
      <path
         d="M 0,0 H -374.399"
         style="fill:none;stroke:#0000ff;stroke-width:0.77475;stroke-linecap:round;stroke-linejoin:round;stroke-miterlimit:10;stroke-dasharray:none;stroke-opacity:1"
         id="path14576" />
    </g>
    <g
       id="g14578"
       transform="matrix(0.35277777,0,0,-0.35277777,34.681335,19.214144)"
       style="stroke-width:0.77475;stroke-dasharray:none">
      <path
         d="M 0,0 -0.24,-0.004 -0.479,-0.016 -0.719,-0.035 -0.957,-0.063 -1.194,-0.1 -1.431,-0.143 -1.665,-0.195 -1.897,-0.254 -2.128,-0.32 -2.355,-0.396 -2.581,-0.479 -2.804,-0.568 -3.023,-0.664 -3.239,-0.77 -3.452,-0.881 -3.66,-1 l -0.205,-0.125 -0.2,-0.133 -0.196,-0.138 -0.191,-0.145 -0.187,-0.152 -0.18,-0.157 -0.176,-0.164 -0.17,-0.17 -0.164,-0.173 -0.158,-0.182 -0.153,-0.186 -0.146,-0.189 -0.14,-0.195 -0.133,-0.2 L -6.185,-3.514 -6.304,-3.721 -6.417,-3.934 -6.521,-4.148 -6.62,-4.367 -6.711,-4.59 -6.794,-4.814 -6.87,-5.043 -6.938,-5.273 -6.998,-5.506 -7.051,-5.74 -7.095,-5.975 -7.132,-6.213 -7.161,-6.451 -7.182,-6.689 -7.195,-6.93 -7.2,-7.17 v -0.029"
         style="fill:none;stroke:#0000ff;stroke-width:0.77475;stroke-linecap:round;stroke-linejoin:round;stroke-miterlimit:10;stroke-dasharray:none;stroke-opacity:1"
         id="path14580" />
    </g>
    <g
       id="g14582"
       transform="matrix(0.35277777,0,0,-0.35277777,34.681335,278.2941)"
       style="stroke-width:0.77475;stroke-dasharray:none">
      <path
         d="M 0,0 H 374.399"
         style="fill:none;stroke:#0000ff;stroke-width:0.77475;stroke-linecap:round;stroke-linejoin:round;stroke-miterlimit:10;stroke-dasharray:none;stroke-opacity:1"
         id="path14584" />
    </g>
    <g
       id="g14586"
       transform="matrix(0.35277777,0,0,-0.35277777,32.141264,21.753861)"
       style="stroke-width:0.77475;stroke-dasharray:none">
      <path
         d="M 0,0 V -720"
         style="fill:none;stroke:#0000ff;stroke-width:0.77475;stroke-linecap:round;stroke-linejoin:round;stroke-miterlimit:10;stroke-dasharray:none;stroke-opacity:1"
         id="path14588" />
    </g>
    <g
       id="g14590"
       transform="matrix(0.35277777,0,0,-0.35277777,32.141264,275.75368)"
       style="stroke-width:0.77475;stroke-dasharray:none">
      <path
         d="M 0,0 0.004,-0.24 0.017,-0.48 0.036,-0.719 0.064,-0.957 0.1,-1.195 0.144,-1.432 0.195,-1.666 0.255,-1.898 0.322,-2.129 0.396,-2.355 0.479,-2.582 0.568,-2.805 0.666,-3.023 0.77,-3.24 0.882,-3.453 1,-3.66 1.126,-3.865 1.258,-4.066 1.396,-4.262 1.542,-4.453 1.693,-4.639 1.851,-4.82 2.015,-4.996 2.184,-5.166 2.358,-5.33 2.539,-5.488 2.725,-5.641 2.915,-5.787 3.11,-5.926 3.311,-6.059 3.514,-6.186 3.723,-6.305 3.935,-6.418 4.15,-6.521 l 0.219,-0.1 0.222,-0.09 0.225,-0.084 0.228,-0.074 0.23,-0.069 0.233,-0.06 0.233,-0.053 0.237,-0.045 0.237,-0.037 0.238,-0.029 0.239,-0.02 0.24,-0.013 0.24,-0.006 H 7.2"
         style="fill:none;stroke:#0000ff;stroke-width:0.77475;stroke-linecap:round;stroke-linejoin:round;stroke-miterlimit:10;stroke-dasharray:none;stroke-opacity:1"
         id="path14592" />
    </g>
    <g
       id="g14634"
       transform="matrix(0.35277777,0,0,-0.35277777,99.388645,285.11058)"
       style="stroke-width:0.77475;stroke-dasharray:none" />
  </g>
</svg>
