<?xml version="1.0" encoding="UTF-8" standalone="no"?>
<!-- Created with Inkscape (http://www.inkscape.org/) -->

<svg
   width="210mm"
   height="297mm"
   viewBox="0 0 210 297"
   version="1.1"
   id="svg3179"
   inkscape:version="1.2.1 (9c6d41e410, 2022-07-14)"
   sodipodi:docname="neotrellis-128-15_Tony_Bottom.svg"
   xmlns:inkscape="http://www.inkscape.org/namespaces/inkscape"
   xmlns:sodipodi="http://sodipodi.sourceforge.net/DTD/sodipodi-0.dtd"
   xmlns="http://www.w3.org/2000/svg"
   xmlns:svg="http://www.w3.org/2000/svg">
  <sodipodi:namedview
     id="namedview3181"
     pagecolor="#ffffff"
     bordercolor="#000000"
     borderopacity="0.25"
     inkscape:showpageshadow="2"
     inkscape:pageopacity="0.0"
     inkscape:pagecheckerboard="0"
     inkscape:deskcolor="#d1d1d1"
     inkscape:document-units="mm"
     showgrid="false"
     showguides="true"
     inkscape:zoom="0.73762626"
     inkscape:cx="-123.36871"
     inkscape:cy="953.05717"
     inkscape:window-width="1920"
     inkscape:window-height="1000"
     inkscape:window-x="-11"
     inkscape:window-y="-11"
     inkscape:window-maximized="1"
     inkscape:current-layer="g14054">
    <inkscape:grid
       type="xygrid"
       id="grid4136"
       originx="2.7755576e-17" />
    <sodipodi:guide
       position="67.410978,88.140332"
       orientation="0,-1"
       id="guide6633"
       inkscape:locked="false" />
    <sodipodi:guide
       position="44.957003,86.164971"
       orientation="0,-1"
       id="guide6635"
       inkscape:locked="false" />
    <sodipodi:guide
       position="98.220588,67.649533"
       orientation="1,0"
       id="guide6639"
       inkscape:locked="false" />
  </sodipodi:namedview>
  <defs
     id="defs3176">
    <clipPath
       clipPathUnits="userSpaceOnUse"
       id="clipPath14060">
      <path
         d="M 0,1728 H 3456 V 0 H 0 Z"
         id="path14058" />
    </clipPath>
  </defs>
  <g
     inkscape:label="Layer 1"
     inkscape:groupmode="layer"
     id="layer1">
    <g
       id="g14054"
       style="stroke-width:0.77475;stroke-dasharray:none"
       transform="matrix(0.35277777,0,0,-0.35277777,-278.87574,605.19026)">
      <g
         id="g14056"
         clip-path="url(#clipPath14060)"
         style="stroke-width:0.77475;stroke-dasharray:none">
        <g
           id="g14066"
           transform="translate(1038.3789,937.9829)"
           style="stroke-width:0.77475;stroke-dasharray:none" />
        <g
           id="g14070"
           transform="translate(1258.5947,1650.2603)"
           style="stroke-width:0.77475;stroke-dasharray:none">
          <path
             d="m 0,0 c 2.349,0 4.252,-1.904 4.252,-4.252 0,-2.349 -1.903,-4.252 -4.252,-4.252 -2.348,0 -4.252,1.903 -4.252,4.252 C -4.252,-1.904 -2.348,0 0,0 Z"
             style="fill:none;stroke:#ff0000;stroke-width:0.77475;stroke-linecap:round;stroke-linejoin:round;stroke-miterlimit:10;stroke-dasharray:none;stroke-opacity:1"
             id="path14072" />
        </g>
        <g
           id="g14074"
           transform="translate(1258.5947,938.7642)"
           style="stroke-width:0.77475;stroke-dasharray:none">
          <path
             d="M 0,0 C 2.349,0 4.252,1.904 4.252,4.252 4.252,6.6 2.349,8.504 0,8.504 -2.348,8.504 -4.252,6.6 -4.252,4.252 -4.252,1.904 -2.348,0 0,0 Z"
             style="fill:none;stroke:#ff0000;stroke-width:0.77475;stroke-linecap:round;stroke-linejoin:round;stroke-miterlimit:10;stroke-dasharray:none;stroke-opacity:1"
             id="path14076" />
        </g>
        <g
           id="g14078"
           transform="translate(895.7607,1650.2603)"
           style="stroke-width:0.77475;stroke-dasharray:none">
          <path
             d="m 0,0 c -2.349,0 -4.252,-1.904 -4.252,-4.252 0,-2.349 1.903,-4.252 4.252,-4.252 2.349,0 4.252,1.903 4.252,4.252 C 4.252,-1.904 2.349,0 0,0 Z"
             style="fill:none;stroke:#ff0000;stroke-width:0.77475;stroke-linecap:round;stroke-linejoin:round;stroke-miterlimit:10;stroke-dasharray:none;stroke-opacity:1"
             id="path14080" />
        </g>
        <g
           id="g14082"
           transform="translate(895.7607,938.7642)"
           style="stroke-width:0.77475;stroke-dasharray:none">
          <path
             d="M 0,0 C -2.349,0 -4.252,1.904 -4.252,4.252 -4.252,6.6 -2.349,8.504 0,8.504 2.349,8.504 4.252,6.6 4.252,4.252 4.252,1.904 2.349,0 0,0 Z"
             style="fill:none;stroke:#ff0000;stroke-width:0.77475;stroke-linecap:round;stroke-linejoin:round;stroke-miterlimit:10;stroke-dasharray:none;stroke-opacity:1"
             id="path14084" />
        </g>
        <g
           id="g14086"
           transform="translate(1258.5947,1290.2603)"
           style="stroke-width:0.77475;stroke-dasharray:none">
          <path
             d="M 0,0 C 2.349,0 4.252,1.903 4.252,4.252 4.252,6.601 2.349,8.504 0,8.504 -2.348,8.504 -4.252,6.601 -4.252,4.252 -4.252,1.903 -2.348,0 0,0 Z"
             style="fill:none;stroke:#ff0000;stroke-width:0.77475;stroke-linecap:round;stroke-linejoin:round;stroke-miterlimit:10;stroke-dasharray:none;stroke-opacity:1"
             id="path14088" />
        </g>
        <g
           id="g14090"
           transform="translate(891.5088,1294.5122)"
           style="stroke-width:0.77475;stroke-dasharray:none">
          <path
             d="M 0,0 C 0,2.349 1.903,4.252 4.252,4.252 6.601,4.252 8.504,2.349 8.504,0 8.504,-2.349 6.601,-4.252 4.252,-4.252 1.903,-4.252 0,-2.349 0,0 Z"
             style="fill:none;stroke:#ff0000;stroke-width:0.77475;stroke-linecap:round;stroke-linejoin:round;stroke-miterlimit:10;stroke-dasharray:none;stroke-opacity:1"
             id="path14092" />
        </g>
        <g
           id="g14094"
           transform="translate(1007.2183,1213.7734)"
           style="stroke-width:0.77475;stroke-dasharray:none">
          <path
             d="m 0,0 c 2.219,0 4.018,-1.154 4.018,-2.578 v -37.398 c 0,-1.423 -1.799,-2.578 -4.018,-2.578 h -21.213 c -2.219,0 -4.018,1.155 -4.018,2.578 v 37.398 c 0,1.424 1.799,2.578 4.018,2.578 z"
             style="fill:none;stroke:#ff0000;stroke-width:0.77475;stroke-linecap:round;stroke-linejoin:round;stroke-miterlimit:10;stroke-dasharray:none;stroke-opacity:1"
             id="path14096" />
        </g>
        <g
           id="g14098"
           transform="translate(1007.2183,1385.0234)"
           style="stroke-width:0.77475;stroke-dasharray:none">
          <path
             d="m 0,0 c 2.219,0 4.018,-1.155 4.018,-2.579 v -37.397 c 0,-1.423 -1.799,-2.578 -4.018,-2.578 h -21.213 c -2.219,0 -4.018,1.155 -4.018,2.578 v 37.397 c 0,1.424 1.799,2.579 4.018,2.579 z"
             style="fill:none;stroke:#ff0000;stroke-width:0.77475;stroke-linecap:round;stroke-linejoin:round;stroke-miterlimit:10;stroke-dasharray:none;stroke-opacity:1"
             id="path14100" />
        </g>
        <g
           id="g14102"
           transform="translate(1007.2183,1556.0215)"
           style="stroke-width:0.77475;stroke-dasharray:none">
          <path
             d="m 0,0 c 2.219,0 4.018,-1.154 4.018,-2.578 v -37.397 c 0,-1.424 -1.799,-2.579 -4.018,-2.579 h -21.213 c -2.219,0 -4.018,1.155 -4.018,2.579 v 37.397 c 0,1.424 1.799,2.578 4.018,2.578 z"
             style="fill:none;stroke:#ff0000;stroke-width:0.77475;stroke-linecap:round;stroke-linejoin:round;stroke-miterlimit:10;stroke-dasharray:none;stroke-opacity:1"
             id="path14104" />
        </g>
        <g
           id="g14106"
           transform="translate(1177.4634,1042.5234)"
           style="stroke-width:0.77475;stroke-dasharray:none">
          <path
             d="m 0,0 c 2.219,0 4.018,-1.155 4.018,-2.579 v -37.397 c 0,-1.423 -1.799,-2.578 -4.018,-2.578 h -21.213 c -2.219,0 -4.018,1.155 -4.018,2.578 v 37.397 c 0,1.424 1.799,2.579 4.018,2.579 z"
             style="fill:none;stroke:#ff0000;stroke-width:0.77475;stroke-linecap:round;stroke-linejoin:round;stroke-miterlimit:10;stroke-dasharray:none;stroke-opacity:1"
             id="path14108" />
        </g>
        <g
           id="g14110"
           transform="translate(1177.4634,1213.7734)"
           style="stroke-width:0.77475;stroke-dasharray:none">
          <path
             d="m 0,0 c 2.219,0 4.018,-1.154 4.018,-2.578 v -37.398 c 0,-1.423 -1.799,-2.578 -4.018,-2.578 h -21.213 c -2.219,0 -4.018,1.155 -4.018,2.578 v 37.398 c 0,1.424 1.799,2.578 4.018,2.578 z"
             style="fill:none;stroke:#ff0000;stroke-width:0.77475;stroke-linecap:round;stroke-linejoin:round;stroke-miterlimit:10;stroke-dasharray:none;stroke-opacity:1"
             id="path14112" />
        </g>
        <g
           id="g14114"
           transform="translate(1177.4634,1385.0234)"
           style="stroke-width:0.77475;stroke-dasharray:none">
          <path
             d="m 0,0 c 2.219,0 4.018,-1.155 4.018,-2.579 v -37.397 c 0,-1.423 -1.799,-2.578 -4.018,-2.578 h -21.213 c -2.219,0 -4.018,1.155 -4.018,2.578 v 37.397 c 0,1.424 1.799,2.579 4.018,2.579 z"
             style="fill:none;stroke:#ff0000;stroke-width:0.77475;stroke-linecap:round;stroke-linejoin:round;stroke-miterlimit:10;stroke-dasharray:none;stroke-opacity:1"
             id="path14116" />
        </g>
        <g
           id="g14118"
           transform="translate(1177.4634,1556.0215)"
           style="stroke-width:0.77475;stroke-dasharray:none">
          <path
             d="m 0,0 c 2.219,0 4.018,-1.154 4.018,-2.578 v -37.397 c 0,-1.424 -1.799,-2.579 -4.018,-2.579 h -21.213 c -2.219,0 -4.018,1.155 -4.018,2.579 v 37.397 c 0,1.424 1.799,2.578 4.018,2.578 z"
             style="fill:none;stroke:#ff0000;stroke-width:0.77475;stroke-linecap:round;stroke-linejoin:round;stroke-miterlimit:10;stroke-dasharray:none;stroke-opacity:1"
             id="path14120" />
        </g>
        <g
           id="g14126"
           transform="translate(1030.6475,927.3511)"
           style="stroke-width:0.77475;stroke-dasharray:none">
          <path
             d="m 0,0 c 36.842943,-0.02413629 80.485513,0.01165085 119.479,0.011 h 114.148 0.172 l 0.241,0.004 0.24,0.012 0.238,0.02 0.238,0.028 0.239,0.035 0.234,0.044 0.234,0.052 0.235,0.06 0.23,0.066 0.227,0.075 0.226,0.082 0.223,0.09 0.219,0.098 0.217,0.104 0.212,0.112 0.207,0.118 0.206,0.126 0.201,0.132 0.195,0.138 0.191,0.146 0.186,0.151 0.182,0.157 0.175,0.164 0.17,0.169 0.164,0.175 0.159,0.181 0.152,0.185 0.144,0.191 0.141,0.195 0.133,0.199 0.127,0.204 0.119,0.209 0.113,0.212 0.106,0.216 0.097,0.219 0.09,0.222 0.084,0.225 0.076,0.228 0.067,0.23 0.062,0.233 0.051,0.233 0.045,0.236 0.037,0.238 0.027,0.238 0.024,0.238 0.012,0.24 0.004,0.241 v 0.029 720 l -0.004,0.24 -0.012,0.24 -0.02,0.239 -0.027,0.238 -0.035,0.238 -0.045,0.235 -0.051,0.234 -0.06,0.232 -0.067,0.231 -0.074,0.228 -0.082,0.227 -0.09,0.223 -0.098,0.218 -0.105,0.217 -0.109,0.211 -0.121,0.209 -0.125,0.205 -0.131,0.199 -0.139,0.198 -0.145,0.191 -0.152,0.186 -0.158,0.179 -0.162,0.176 -0.172,0.17 -0.174,0.166 -0.18,0.158 -0.185,0.153 -0.192,0.144 -0.195,0.141 -0.199,0.133 -0.203,0.126 -0.209,0.12 -0.213,0.111 -0.215,0.105 -0.219,0.098 -0.222,0.092 -0.225,0.082 -0.228,0.076 -0.231,0.068 -0.23,0.061 -0.235,0.053 -0.236,0.045 -0.236,0.037 -0.239,0.027 -0.24,0.022 -0.24,0.013 -0.238,0.004 H 233.799 -140.6 l -0.24,-0.004 -0.24,-0.011 -0.239,-0.02 -0.238,-0.027 -0.237,-0.037 -0.237,-0.043 -0.234,-0.053 -0.233,-0.059 -0.23,-0.066 -0.228,-0.076 -0.225,-0.082 -0.223,-0.09 -0.22,-0.096 -0.215,-0.105 -0.213,-0.112 -0.208,-0.119 -0.205,-0.125 -0.201,-0.133 -0.195,-0.138 -0.191,-0.145 -0.187,-0.152 -0.18,-0.156 -0.176,-0.165 -0.17,-0.169 -0.164,-0.174 -0.158,-0.182 -0.153,-0.185 -0.146,-0.19 -0.14,-0.195 -0.133,-0.199 -0.126,-0.206 -0.119,-0.207 -0.113,-0.212 -0.105,-0.215 -0.098,-0.219 -0.091,-0.223 -0.083,-0.224 -0.076,-0.229 -0.068,-0.23 -0.06,-0.233 -0.053,-0.234 -0.044,-0.234 -0.037,-0.239 -0.029,-0.238 -0.021,-0.238 -0.013,-0.241 -0.005,-0.24 v -0.029 c 0,0 -10e-4,-541.8 -10e-4,-635.644 l -0.004,-0.068 c 0.001,-10.49 0.005,-84.288 0.005,-84.288 l 0.004,-0.24 0.012,-0.24 0.02,-0.239 0.028,-0.238 0.035,-0.237 0.044,-0.237 0.052,-0.234 0.06,-0.233 0.067,-0.23 0.074,-0.228 0.082,-0.225 0.09,-0.223 0.098,-0.219 0.103,-0.216 0.113,-0.213 0.118,-0.208 0.126,-0.205 0.132,-0.2 0.138,-0.197 0.146,-0.19 0.151,-0.187 0.157,-0.18 0.164,-0.176 0.169,-0.17 0.175,-0.164 0.181,-0.158 0.185,-0.153 0.191,-0.146 0.195,-0.14 0.2,-0.133 0.203,-0.126 0.209,-0.12 0.212,-0.112 0.216,-0.105 0.219,-0.098 0.222,-0.091 0.225,-0.083 0.228,-0.075 0.23,-0.069 0.233,-0.06 0.233,-0.053 0.236,-0.045 0.238,-0.036 0.238,-0.029 0.239,-0.021 0.239,-0.013 0.241,-0.005 h 0.029 -0.172 l 0.143,-0.006 C -138.1734,0.0041801 -68.271619,0.00268796 -24.263263,0.00162592 -14.596372,0.00139264 -6.178857,0.0011801 0,0.001"
             style="fill:none;stroke:#ff0000;stroke-width:0.77475;stroke-linecap:round;stroke-linejoin:round;stroke-miterlimit:10;stroke-dasharray:none;stroke-opacity:1"
             id="path14128"
             sodipodi:nodetypes="cccccccccccccccccccccccccccccccccccccccccccccccccccccccccccccccccccccccccccccccccccccccccccccccccccccccccccccccccccccccccccccccccccccccccccccccccccccccccccccccccccccccccccccccccccccccccccccccccccccccccccsc" />
        </g>
        <g
           id="g4150"
           transform="translate(1014.5371,1089.8599)"
           style="stroke-width:0.77475;stroke-dasharray:none">
          <path
             d="m 54.368627,-162.00071 c -0.07132,51.39497 0.03798,94.489278 0.02877,146.680483 -0.0021,11.9959434 -0.0105,24.4724692 -0.02877,37.640828 -0.0059,4.237996 -1.268122,5.676871 -4.930122,5.676871 l -30.198236,0 H -4.7136601 c -2.509,0 -3.499,-0.481 -3.499,-4.183 V -3.7436998 -42.809 c 0,-2.711 -1.8599999,-4.527 -5.5279999,-4.527 H -28.532 c -2.218,0 -4.018,-1.156 -4.018,-2.58 v -37.396 c 0,-1.424 1.800107,-2.599815 4.018,-2.578 l 8.80279,0.08658 c 4.909442,-0.03545 5.465131,-2.351537 5.465131,-4.44235 7e-6,-18.75491 -1.4e-5,-56.15413 -1.4e-5,-56.15413 l 0.05985,-12.02069"
             style="fill:none;stroke:#ff0000;stroke-width:0.773858;stroke-linecap:round;stroke-linejoin:round;stroke-miterlimit:10;stroke-dasharray:none;stroke-opacity:1"
             id="path4148"
             sodipodi:nodetypes="cssscsscsssssscssc" />
        </g>
      </g>
    </g>
  </g>
</svg>
