<?xml version="1.0" encoding="UTF-8" standalone="no"?>
<!-- Created with Inkscape (http://www.inkscape.org/) -->

<svg
   width="210mm"
   height="297mm"
   viewBox="0 0 210 297"
   version="1.1"
   id="svg3179"
   inkscape:version="1.2.1 (9c6d41e410, 2022-07-14)"
   sodipodi:docname="neotrellis-128-15_Tony_Bottom.svg"
   xmlns:inkscape="http://www.inkscape.org/namespaces/inkscape"
   xmlns:sodipodi="http://sodipodi.sourceforge.net/DTD/sodipodi-0.dtd"
   xmlns="http://www.w3.org/2000/svg"
   xmlns:svg="http://www.w3.org/2000/svg">
  <sodipodi:namedview
     id="namedview3181"
     pagecolor="#ffffff"
     bordercolor="#000000"
     borderopacity="0.25"
     inkscape:showpageshadow="2"
     inkscape:pageopacity="0.0"
     inkscape:pagecheckerboard="0"
     inkscape:deskcolor="#d1d1d1"
     inkscape:document-units="mm"
     showgrid="false"
     showguides="true"
     inkscape:zoom="0.73762626"
     inkscape:cx="106.42246"
     inkscape:cy="818.84286"
     inkscape:window-width="1920"
     inkscape:window-height="1000"
     inkscape:window-x="-11"
     inkscape:window-y="-11"
     inkscape:window-maximized="1"
     inkscape:current-layer="g14626">
    <inkscape:grid
       type="xygrid"
       id="grid4136"
       originx="2.7755576e-17" />
    <sodipodi:guide
       position="67.410978,88.140332"
       orientation="0,-1"
       id="guide6633"
       inkscape:locked="false" />
    <sodipodi:guide
       position="44.957003,86.164971"
       orientation="0,-1"
       id="guide6635"
       inkscape:locked="false" />
    <sodipodi:guide
       position="98.220588,67.649533"
       orientation="1,0"
       id="guide6639"
       inkscape:locked="false" />
  </sodipodi:namedview>
  <defs
     id="defs3176">
    <clipPath
       clipPathUnits="userSpaceOnUse"
       id="clipPath14060">
      <path
         d="M 0,1728 H 3456 V 0 H 0 Z"
         id="path14058" />
    </clipPath>
  </defs>
  <g
     inkscape:label="Layer 1"
     inkscape:groupmode="layer"
     id="layer1">
    <g
       id="g14054"
       style="stroke-width:0.77475;stroke-dasharray:none"
       transform="matrix(0.35277777,0,0,-0.35277777,-278.87574,605.19026)">
      <g
         id="g14056"
         clip-path="url(#clipPath14060)"
         style="stroke-width:0.77475;stroke-dasharray:none">
        <g
           id="g14066"
           transform="translate(1038.3789,937.9829)"
           style="stroke-width:0.77475;stroke-dasharray:none" />
        <g
           id="g14070"
           transform="translate(1258.5947,1650.2603)"
           style="stroke-width:0.77475;stroke-dasharray:none">
          <path
             d="m 0,0 c 2.349,0 4.252,-1.904 4.252,-4.252 0,-2.349 -1.903,-4.252 -4.252,-4.252 -2.348,0 -4.252,1.903 -4.252,4.252 C -4.252,-1.904 -2.348,0 0,0 Z"
             style="fill:none;stroke:#ff0000;stroke-width:0.77475;stroke-linecap:round;stroke-linejoin:round;stroke-miterlimit:10;stroke-dasharray:none;stroke-opacity:1"
             id="path14072" />
        </g>
        <g
           id="g14074"
           transform="translate(1258.5947,938.7642)"
           style="stroke-width:0.77475;stroke-dasharray:none">
          <path
             d="M 0,0 C 2.349,0 4.252,1.904 4.252,4.252 4.252,6.6 2.349,8.504 0,8.504 -2.348,8.504 -4.252,6.6 -4.252,4.252 -4.252,1.904 -2.348,0 0,0 Z"
             style="fill:none;stroke:#ff0000;stroke-width:0.77475;stroke-linecap:round;stroke-linejoin:round;stroke-miterlimit:10;stroke-dasharray:none;stroke-opacity:1"
             id="path14076" />
        </g>
        <g
           id="g14078"
           transform="translate(895.7607,1650.2603)"
           style="stroke-width:0.77475;stroke-dasharray:none">
          <path
             d="m 0,0 c -2.349,0 -4.252,-1.904 -4.252,-4.252 0,-2.349 1.903,-4.252 4.252,-4.252 2.349,0 4.252,1.903 4.252,4.252 C 4.252,-1.904 2.349,0 0,0 Z"
             style="fill:none;stroke:#ff0000;stroke-width:0.77475;stroke-linecap:round;stroke-linejoin:round;stroke-miterlimit:10;stroke-dasharray:none;stroke-opacity:1"
             id="path14080" />
        </g>
        <g
           id="g14082"
           transform="translate(895.7607,938.7642)"
           style="stroke-width:0.77475;stroke-dasharray:none">
          <path
             d="M 0,0 C -2.349,0 -4.252,1.904 -4.252,4.252 -4.252,6.6 -2.349,8.504 0,8.504 2.349,8.504 4.252,6.6 4.252,4.252 4.252,1.904 2.349,0 0,0 Z"
             style="fill:none;stroke:#ff0000;stroke-width:0.77475;stroke-linecap:round;stroke-linejoin:round;stroke-miterlimit:10;stroke-dasharray:none;stroke-opacity:1"
             id="path14084" />
        </g>
        <g
           id="g14086"
           transform="translate(1258.5947,1290.2603)"
           style="stroke-width:0.77475;stroke-dasharray:none">
          <path
             d="M 0,0 C 2.349,0 4.252,1.903 4.252,4.252 4.252,6.601 2.349,8.504 0,8.504 -2.348,8.504 -4.252,6.601 -4.252,4.252 -4.252,1.903 -2.348,0 0,0 Z"
             style="fill:none;stroke:#ff0000;stroke-width:0.77475;stroke-linecap:round;stroke-linejoin:round;stroke-miterlimit:10;stroke-dasharray:none;stroke-opacity:1"
             id="path14088" />
        </g>
        <g
           id="g14090"
           transform="translate(891.5088,1294.5122)"
           style="stroke-width:0.77475;stroke-dasharray:none">
          <path
             d="M 0,0 C 0,2.349 1.903,4.252 4.252,4.252 6.601,4.252 8.504,2.349 8.504,0 8.504,-2.349 6.601,-4.252 4.252,-4.252 1.903,-4.252 0,-2.349 0,0 Z"
             style="fill:none;stroke:#ff0000;stroke-width:0.77475;stroke-linecap:round;stroke-linejoin:round;stroke-miterlimit:10;stroke-dasharray:none;stroke-opacity:1"
             id="path14092" />
        </g>
        <g
           id="g14094"
           transform="translate(1007.2183,1213.7734)"
           style="stroke-width:0.77475;stroke-dasharray:none">
          <path
             d="m 0,0 c 2.219,0 4.018,-1.154 4.018,-2.578 v -37.398 c 0,-1.423 -1.799,-2.578 -4.018,-2.578 h -21.213 c -2.219,0 -4.018,1.155 -4.018,2.578 v 37.398 c 0,1.424 1.799,2.578 4.018,2.578 z"
             style="fill:none;stroke:#ff0000;stroke-width:0.77475;stroke-linecap:round;stroke-linejoin:round;stroke-miterlimit:10;stroke-dasharray:none;stroke-opacity:1"
             id="path14096" />
        </g>
        <g
           id="g14098"
           transform="translate(1007.2183,1385.0234)"
           style="stroke-width:0.77475;stroke-dasharray:none">
          <path
             d="m 0,0 c 2.219,0 4.018,-1.155 4.018,-2.579 v -37.397 c 0,-1.423 -1.799,-2.578 -4.018,-2.578 h -21.213 c -2.219,0 -4.018,1.155 -4.018,2.578 v 37.397 c 0,1.424 1.799,2.579 4.018,2.579 z"
             style="fill:none;stroke:#ff0000;stroke-width:0.77475;stroke-linecap:round;stroke-linejoin:round;stroke-miterlimit:10;stroke-dasharray:none;stroke-opacity:1"
             id="path14100" />
        </g>
        <g
           id="g14102"
           transform="translate(1007.2183,1556.0215)"
           style="stroke-width:0.77475;stroke-dasharray:none">
          <path
             d="m 0,0 c 2.219,0 4.018,-1.154 4.018,-2.578 v -37.397 c 0,-1.424 -1.799,-2.579 -4.018,-2.579 h -21.213 c -2.219,0 -4.018,1.155 -4.018,2.579 v 37.397 c 0,1.424 1.799,2.578 4.018,2.578 z"
             style="fill:none;stroke:#ff0000;stroke-width:0.77475;stroke-linecap:round;stroke-linejoin:round;stroke-miterlimit:10;stroke-dasharray:none;stroke-opacity:1"
             id="path14104" />
        </g>
        <g
           id="g14106"
           transform="translate(1177.4634,1042.5234)"
           style="stroke-width:0.77475;stroke-dasharray:none">
          <path
             d="m 0,0 c 2.219,0 4.018,-1.155 4.018,-2.579 v -37.397 c 0,-1.423 -1.799,-2.578 -4.018,-2.578 h -21.213 c -2.219,0 -4.018,1.155 -4.018,2.578 v 37.397 c 0,1.424 1.799,2.579 4.018,2.579 z"
             style="fill:none;stroke:#ff0000;stroke-width:0.77475;stroke-linecap:round;stroke-linejoin:round;stroke-miterlimit:10;stroke-dasharray:none;stroke-opacity:1"
             id="path14108" />
        </g>
        <g
           id="g14110"
           transform="translate(1177.4634,1213.7734)"
           style="stroke-width:0.77475;stroke-dasharray:none">
          <path
             d="m 0,0 c 2.219,0 4.018,-1.154 4.018,-2.578 v -37.398 c 0,-1.423 -1.799,-2.578 -4.018,-2.578 h -21.213 c -2.219,0 -4.018,1.155 -4.018,2.578 v 37.398 c 0,1.424 1.799,2.578 4.018,2.578 z"
             style="fill:none;stroke:#ff0000;stroke-width:0.77475;stroke-linecap:round;stroke-linejoin:round;stroke-miterlimit:10;stroke-dasharray:none;stroke-opacity:1"
             id="path14112" />
        </g>
        <g
           id="g14114"
           transform="translate(1177.4634,1385.0234)"
           style="stroke-width:0.77475;stroke-dasharray:none">
          <path
             d="m 0,0 c 2.219,0 4.018,-1.155 4.018,-2.579 v -37.397 c 0,-1.423 -1.799,-2.578 -4.018,-2.578 h -21.213 c -2.219,0 -4.018,1.155 -4.018,2.578 v 37.397 c 0,1.424 1.799,2.579 4.018,2.579 z"
             style="fill:none;stroke:#ff0000;stroke-width:0.77475;stroke-linecap:round;stroke-linejoin:round;stroke-miterlimit:10;stroke-dasharray:none;stroke-opacity:1"
             id="path14116" />
        </g>
        <g
           id="g14118"
           transform="translate(1177.4634,1556.0215)"
           style="stroke-width:0.77475;stroke-dasharray:none">
          <path
             d="m 0,0 c 2.219,0 4.018,-1.154 4.018,-2.578 v -37.397 c 0,-1.424 -1.799,-2.579 -4.018,-2.579 h -21.213 c -2.219,0 -4.018,1.155 -4.018,2.579 v 37.397 c 0,1.424 1.799,2.578 4.018,2.578 z"
             style="fill:none;stroke:#ff0000;stroke-width:0.77475;stroke-linecap:round;stroke-linejoin:round;stroke-miterlimit:10;stroke-dasharray:none;stroke-opacity:1"
             id="path14120" />
        </g>
        <g
           id="g14126"
           transform="translate(1030.6475,927.3511)"
           style="stroke-width:0.77475;stroke-dasharray:none">
          <path
             d="m 0,0 c 36.842943,-0.02413629 80.485513,0.01165085 119.479,0.011 h 114.148 0.172 l 0.241,0.004 0.24,0.012 0.238,0.02 0.238,0.028 0.239,0.035 0.234,0.044 0.234,0.052 0.235,0.06 0.23,0.066 0.227,0.075 0.226,0.082 0.223,0.09 0.219,0.098 0.217,0.104 0.212,0.112 0.207,0.118 0.206,0.126 0.201,0.132 0.195,0.138 0.191,0.146 0.186,0.151 0.182,0.157 0.175,0.164 0.17,0.169 0.164,0.175 0.159,0.181 0.152,0.185 0.144,0.191 0.141,0.195 0.133,0.199 0.127,0.204 0.119,0.209 0.113,0.212 0.106,0.216 0.097,0.219 0.09,0.222 0.084,0.225 0.076,0.228 0.067,0.23 0.062,0.233 0.051,0.233 0.045,0.236 0.037,0.238 0.027,0.238 0.024,0.238 0.012,0.24 0.004,0.241 v 0.029 720 l -0.004,0.24 -0.012,0.24 -0.02,0.239 -0.027,0.238 -0.035,0.238 -0.045,0.235 -0.051,0.234 -0.06,0.232 -0.067,0.231 -0.074,0.228 -0.082,0.227 -0.09,0.223 -0.098,0.218 -0.105,0.217 -0.109,0.211 -0.121,0.209 -0.125,0.205 -0.131,0.199 -0.139,0.198 -0.145,0.191 -0.152,0.186 -0.158,0.179 -0.162,0.176 -0.172,0.17 -0.174,0.166 -0.18,0.158 -0.185,0.153 -0.192,0.144 -0.195,0.141 -0.199,0.133 -0.203,0.126 -0.209,0.12 -0.213,0.111 -0.215,0.105 -0.219,0.098 -0.222,0.092 -0.225,0.082 -0.228,0.076 -0.231,0.068 -0.23,0.061 -0.235,0.053 -0.236,0.045 -0.236,0.037 -0.239,0.027 -0.24,0.022 -0.24,0.013 -0.238,0.004 H 233.799 -140.6 l -0.24,-0.004 -0.24,-0.011 -0.239,-0.02 -0.238,-0.027 -0.237,-0.037 -0.237,-0.043 -0.234,-0.053 -0.233,-0.059 -0.23,-0.066 -0.228,-0.076 -0.225,-0.082 -0.223,-0.09 -0.22,-0.096 -0.215,-0.105 -0.213,-0.112 -0.208,-0.119 -0.205,-0.125 -0.201,-0.133 -0.195,-0.138 -0.191,-0.145 -0.187,-0.152 -0.18,-0.156 -0.176,-0.165 -0.17,-0.169 -0.164,-0.174 -0.158,-0.182 -0.153,-0.185 -0.146,-0.19 -0.14,-0.195 -0.133,-0.199 -0.126,-0.206 -0.119,-0.207 -0.113,-0.212 -0.105,-0.215 -0.098,-0.219 -0.091,-0.223 -0.083,-0.224 -0.076,-0.229 -0.068,-0.23 -0.06,-0.233 -0.053,-0.234 -0.044,-0.234 -0.037,-0.239 -0.029,-0.238 -0.021,-0.238 -0.013,-0.241 -0.005,-0.24 v -0.029 c 0,0 -10e-4,-541.8 -10e-4,-635.644 l -0.004,-0.068 c 0.001,-10.49 0.005,-84.288 0.005,-84.288 l 0.004,-0.24 0.012,-0.24 0.02,-0.239 0.028,-0.238 0.035,-0.237 0.044,-0.237 0.052,-0.234 0.06,-0.233 0.067,-0.23 0.074,-0.228 0.082,-0.225 0.09,-0.223 0.098,-0.219 0.103,-0.216 0.113,-0.213 0.118,-0.208 0.126,-0.205 0.132,-0.2 0.138,-0.197 0.146,-0.19 0.151,-0.187 0.157,-0.18 0.164,-0.176 0.169,-0.17 0.175,-0.164 0.181,-0.158 0.185,-0.153 0.191,-0.146 0.195,-0.14 0.2,-0.133 0.203,-0.126 0.209,-0.12 0.212,-0.112 0.216,-0.105 0.219,-0.098 0.222,-0.091 0.225,-0.083 0.228,-0.075 0.23,-0.069 0.233,-0.06 0.233,-0.053 0.236,-0.045 0.238,-0.036 0.238,-0.029 0.239,-0.021 0.239,-0.013 0.241,-0.005 h 0.029 -0.172 l 0.143,-0.006 C -138.1734,0.0041801 -68.271619,0.00268796 -24.263263,0.00162592 -14.596372,0.00139264 -6.178857,0.0011801 0,0.001"
             style="fill:none;stroke:#ff0000;stroke-width:0.77475;stroke-linecap:round;stroke-linejoin:round;stroke-miterlimit:10;stroke-dasharray:none;stroke-opacity:1"
             id="path14128"
             sodipodi:nodetypes="cccccccccccccccccccccccccccccccccccccccccccccccccccccccccccccccccccccccccccccccccccccccccccccccccccccccccccccccccccccccccccccccccccccccccccccccccccccccccccccccccccccccccccccccccccccccccccccccccccccccccccsc" />
        </g>
        <g
           id="g4150"
           transform="translate(1014.5371,1089.8599)"
           style="stroke-width:0.77475;stroke-dasharray:none">
          <path
             d="m 54.368627,-162.00071 c -0.07132,51.39497 0.03798,94.489278 0.02877,146.680483 -0.0021,11.9959434 -0.0105,24.4724692 -0.02877,37.640828 -0.0059,4.237996 -1.268122,5.676871 -4.930122,5.676871 l -30.198236,0 H -4.7136601 c -2.509,0 -3.499,-0.481 -3.499,-4.183 V -3.7436998 -42.809 c 0,-2.711 -1.8599999,-4.527 -5.5279999,-4.527 H -28.532 c -2.218,0 -4.018,-1.156 -4.018,-2.58 v -37.396 c 0,-1.424 1.800107,-2.599815 4.018,-2.578 l 8.80279,0.08658 c 4.909442,-0.03545 5.465131,-2.351537 5.465131,-4.44235 7e-6,-18.75491 -1.4e-5,-56.15413 -1.4e-5,-56.15413 l 0.05985,-12.02069"
             style="fill:none;stroke:#ff0000;stroke-width:0.773858;stroke-linecap:round;stroke-linejoin:round;stroke-miterlimit:10;stroke-dasharray:none;stroke-opacity:1"
             id="path4148"
             sodipodi:nodetypes="cssscsscsssssscssc" />
        </g>
      </g>
      <g
         id="g14594"
         transform="translate(869.27072,1322.6548)"
         style="stroke-width:0.77475;stroke-dasharray:none">
        <path
           d="M 0,0 -6.661,-3.846 -13.323,0 V 7.692 L -6.661,11.539 0,7.692 Z"
           style="fill:none;stroke:#0000ff;stroke-width:0.77475;stroke-linecap:round;stroke-linejoin:round;stroke-miterlimit:10;stroke-dasharray:none;stroke-opacity:1"
           id="path14596" />
      </g>
      <g
         id="g14598"
         transform="translate(869.26972,1674.1519)"
         style="stroke-width:0.77475;stroke-dasharray:none">
        <path
           d="M 0,0 -6.661,-3.846 -13.322,0 V 7.692 L -6.661,11.539 0,7.692 Z"
           style="fill:none;stroke:#0000ff;stroke-width:0.77475;stroke-linecap:round;stroke-linejoin:round;stroke-miterlimit:10;stroke-dasharray:none;stroke-opacity:1"
           id="path14600" />
      </g>
      <g
         id="g14602"
         transform="translate(993.14672,1687.5396)"
         style="stroke-width:0.77475;stroke-dasharray:none">
        <path
           d="m 0,0 c 4.385,0 7.043,-2.658 7.043,-6.566 0,-3.967 -2.996,-6.288 -6.805,-6.288 -4.007,0 -7.002,2.559 -7.002,6.506 C -6.764,-2.242 -3.689,0 0,0 Z"
           style="fill:none;stroke:#000000;stroke-width:0.77475;stroke-linecap:butt;stroke-linejoin:miter;stroke-miterlimit:4;stroke-dasharray:none;stroke-opacity:1"
           id="path14604" />
      </g>
      <g
         id="g14606"
         transform="translate(1012.132,1684.2598)"
         style="stroke-width:0.77475;stroke-dasharray:none">
        <path
           d="m 0,0 v 9.478 h -155.241 l -0.24,-0.004 -0.24,-0.012 -0.239,-0.019 -0.238,-0.027 -0.238,-0.038 -0.236,-0.043 -0.234,-0.052 -0.233,-0.059 -0.23,-0.066 -0.228,-0.076 -0.225,-0.082 -0.223,-0.09 -0.22,-0.096 -0.215,-0.106 -0.213,-0.111 -0.208,-0.119 -0.205,-0.125 -0.201,-0.133 -0.195,-0.138 -0.191,-0.145 -0.187,-0.152 -0.181,-0.157 -0.175,-0.164 -0.17,-0.17 -0.164,-0.173 -0.159,-0.182 -0.152,-0.186 -0.146,-0.189 -0.14,-0.195 -0.133,-0.2 -0.126,-0.205 -0.119,-0.207 -0.113,-0.213 -0.105,-0.214 -0.098,-0.219 -0.091,-0.223 -0.083,-0.224 -0.076,-0.229 -0.068,-0.23 -0.06,-0.233 -0.053,-0.234 -0.044,-0.235 -0.037,-0.238 -0.029,-0.238 -0.021,-0.238 -0.014,-0.241 -0.004,-0.24 V 2.279 -442.787 h 8.665 v 11.317 h 5.669 v -11.317 h 8.663 v 427.64 H 0 v 9.478 H 11.337 V 0 Z"
           style="fill:none;stroke:#0000ff;stroke-width:0.77475;stroke-linecap:butt;stroke-linejoin:miter;stroke-miterlimit:4;stroke-dasharray:none;stroke-opacity:1"
           id="path14608" />
      </g>
      <g
         id="g14610"
         transform="translate(862.23412,1260.941)"
         style="stroke-width:0.77475;stroke-dasharray:none">
        <path
           d="m 0,0 v 7.2 h -2.608 v 0.964 c 0.34,0 0.671,0.025 0.992,0.078 0.322,0.052 0.612,0.149 0.872,0.29 0.26,0.142 0.479,0.335 0.659,0.581 0.179,0.246 0.302,0.558 0.369,0.936 H 1.205 V 0 Z"
           style="fill:none;stroke:#000000;stroke-width:0.77475;stroke-linecap:butt;stroke-linejoin:miter;stroke-miterlimit:10;stroke-dasharray:none;stroke-opacity:1"
           id="path14612" />
      </g>
      <g
         id="g14614"
         transform="translate(973.27172,1683.5503)"
         style="stroke-width:0.77475;stroke-dasharray:none">
        <path
           d="m 0,0 c 0.132,0.435 0.338,0.811 0.617,1.127 0.279,0.316 0.626,0.564 1.042,0.744 0.415,0.18 0.887,0.27 1.417,0.27 0.434,0 0.843,-0.064 1.226,-0.192 C 4.685,1.821 5.018,1.638 5.301,1.396 5.584,1.155 5.809,0.855 5.974,0.496 6.14,0.138 6.222,-0.278 6.222,-0.751 6.222,-1.195 6.154,-1.587 6.017,-1.927 5.88,-2.268 5.698,-2.572 5.471,-2.841 5.244,-3.11 4.984,-3.354 4.691,-3.571 4.398,-3.789 4.096,-3.996 3.785,-4.194 3.473,-4.384 3.161,-4.57 2.849,-4.755 2.537,-4.938 2.251,-5.135 1.992,-5.343 1.731,-5.551 1.51,-5.775 1.325,-6.016 1.141,-6.257 1.021,-6.533 0.964,-6.845 h 5.159 v -1.063 h -6.562 c 0.047,0.595 0.153,1.103 0.319,1.523 0.165,0.421 0.375,0.787 0.63,1.099 0.256,0.311 0.544,0.586 0.865,0.822 0.321,0.235 0.657,0.458 1.006,0.666 0.426,0.265 0.799,0.508 1.12,0.73 0.321,0.222 0.588,0.446 0.801,0.673 0.213,0.227 0.373,0.472 0.482,0.737 0.108,0.264 0.163,0.572 0.163,0.922 0,0.273 -0.052,0.521 -0.156,0.744 C 4.687,0.229 4.547,0.421 4.373,0.582 4.198,0.742 3.992,0.865 3.756,0.95 3.52,1.035 3.27,1.077 3.005,1.077 2.655,1.077 2.355,1.004 2.105,0.858 1.854,0.711 1.649,0.52 1.488,0.284 1.328,0.048 1.212,-0.219 1.141,-0.517 1.07,-0.814 1.04,-1.114 1.049,-1.417 H -0.156 C -0.184,-0.906 -0.132,-0.435 0,0 Z"
           style="fill:none;stroke:#000000;stroke-width:0.77475;stroke-linecap:butt;stroke-linejoin:miter;stroke-miterlimit:10;stroke-dasharray:none;stroke-opacity:1"
           id="path14616" />
      </g>
      <g
         id="g14618"
         transform="translate(870.10032,907.19291)"
         style="stroke-width:0.77475;stroke-dasharray:none">
        <path
           d="M 0,0 -6.661,-3.846 -13.323,0 V 7.691 L -6.661,11.539 0,7.691 Z"
           style="fill:none;stroke:#0000ff;stroke-width:0.77475;stroke-linecap:round;stroke-linejoin:round;stroke-miterlimit:10;stroke-dasharray:none;stroke-opacity:1"
           id="path14620" />
      </g>
      <g
         id="g14626"
         transform="translate(1052.8747,905.96641)"
         style="stroke-width:0.77475;stroke-dasharray:none" />
      <g
         id="g14630"
         transform="translate(863.29902,1145.8873)"
         style="stroke-width:0.77475;stroke-dasharray:none">
        <path
           d="m 0,0 c 4.385,0 7.043,-2.658 7.043,-6.566 0,-3.967 -2.996,-6.288 -6.805,-6.288 -4.007,0 -7.002,2.559 -7.002,6.506 C -6.764,-2.242 -3.689,0 0,0 Z"
           style="fill:none;stroke:#000000;stroke-width:0.77475;stroke-linecap:butt;stroke-linejoin:miter;stroke-miterlimit:4;stroke-dasharray:none;stroke-opacity:1"
           id="path14632" />
      </g>
      <g
         id="g14634"
         transform="translate(1076.4977,910.36281)"
         style="stroke-width:0.77475;stroke-dasharray:none">
        <path
           d="m 0,0 v 9.635 h -202.98 v 257.51 h -8.665 v 11.316 h -5.668 v -11.316 h -8.665 V -7.791 l 0.004,-0.24 0.013,-0.239 0.02,-0.24 0.028,-0.238 0.035,-0.236 0.044,-0.237 0.052,-0.234 0.059,-0.233 0.068,-0.23 0.074,-0.228 0.082,-0.225 0.09,-0.223 0.097,-0.22 0.104,-0.215 0.112,-0.213 0.118,-0.209 0.126,-0.205 0.132,-0.199 0.139,-0.198 0.145,-0.189 0.152,-0.188 0.157,-0.179 0.164,-0.176 0.169,-0.17 0.175,-0.164 0.181,-0.158 0.185,-0.153 0.19,-0.146 0.196,-0.141 0.2,-0.133 0.203,-0.125 0.209,-0.121 0.212,-0.111 0.216,-0.106 0.219,-0.097 0.221,-0.092 0.226,-0.082 0.227,-0.076 0.231,-0.069 0.232,-0.06 0.234,-0.053 0.236,-0.045 0.237,-0.035 0.239,-0.029 0.239,-0.022 0.239,-0.013 0.24,-0.004 h 0.03 H 0 v 9.32 H -11.338 V 0 Z"
           style="fill:none;stroke:#0000ff;stroke-width:0.77475;stroke-linecap:butt;stroke-linejoin:miter;stroke-miterlimit:4;stroke-dasharray:none;stroke-opacity:1"
           id="path14636" />
      </g>
      <g
         id="g14638"
         transform="translate(864.14032,1152.1304)"
         style="stroke-width:0.77475;stroke-dasharray:none">
        <path
           d="m 0,0 v 7.2 h -2.608 v 0.964 c 0.34,0 0.671,0.025 0.992,0.078 0.322,0.052 0.612,0.149 0.872,0.29 0.26,0.142 0.479,0.335 0.659,0.581 0.179,0.246 0.302,0.558 0.369,0.936 H 1.205 V 0 Z"
           style="fill:none;stroke:#000000;stroke-width:0.77475;stroke-linecap:butt;stroke-linejoin:miter;stroke-miterlimit:10;stroke-dasharray:none;stroke-opacity:1"
           id="path14640" />
      </g>
      <g
         id="g14642"
         transform="translate(1025.4225,910.97221)"
         style="stroke-width:0.77475;stroke-dasharray:none">
        <path
           d="M 0,0 H -0.028 L -3.373,-4.918 H 0 Z M 2.494,-4.918 V -5.981 H 1.134 V -8.334 H 0 v 2.353 h -4.408 v 1.162 L 0.17,1.715 h 0.964 v -6.633 z"
           style="fill:none;stroke:#000000;stroke-width:0.77475;stroke-linecap:butt;stroke-linejoin:miter;stroke-miterlimit:10;stroke-dasharray:none;stroke-opacity:1"
           id="path14644" />
      </g>
      <g
         id="g14646"
         transform="translate(1294.3462,1675.1686)"
         style="stroke-width:0.77475;stroke-dasharray:none">
        <path
           d="M 0,0 -6.66,-3.846 -13.322,0 V 7.692 L -6.66,11.539 0,7.692 Z"
           style="fill:none;stroke:#0000ff;stroke-width:0.77475;stroke-linecap:round;stroke-linejoin:round;stroke-miterlimit:10;stroke-dasharray:none;stroke-opacity:1"
           id="path14648" />
      </g>
      <g
         id="g14650"
         transform="translate(1289.9047,1447.7204)"
         style="stroke-width:0.77475;stroke-dasharray:none">
        <path
           d="m 0,0 c 4.385,0 7.043,-2.658 7.043,-6.566 0,-3.967 -2.996,-6.288 -6.805,-6.288 -4.006,0 -7.002,2.559 -7.002,6.506 C -6.764,-2.242 -3.689,0 0,0 Z"
           style="fill:none;stroke:#000000;stroke-width:0.77475;stroke-linecap:butt;stroke-linejoin:miter;stroke-miterlimit:4;stroke-dasharray:none;stroke-opacity:1"
           id="path14652" />
      </g>
      <g
         id="g14654"
         transform="translate(1300.7309,1687.5553)"
         style="stroke-width:0.77475;stroke-dasharray:none">
        <path
           d="M 0,0 -0.004,0.24 -0.016,0.48 -0.035,0.719 -0.063,0.957 -0.098,1.195 -0.143,1.43 -0.193,1.664 -0.254,1.896 -0.32,2.127 -0.395,2.355 -0.477,2.582 -0.566,2.805 -0.664,3.023 -0.77,3.24 -0.879,3.451 -1,3.66 -1.125,3.865 -1.256,4.064 -1.395,4.262 -1.539,4.453 -1.691,4.639 -1.85,4.818 l -0.162,0.176 -0.172,0.17 -0.173,0.166 -0.18,0.158 -0.186,0.153 -0.191,0.144 -0.195,0.141 -0.2,0.133 -0.203,0.127 -0.209,0.119 -0.213,0.111 -0.214,0.105 -0.219,0.098 -0.223,0.092 -0.224,0.082 -0.229,0.076 -0.23,0.069 -0.231,0.06 -0.234,0.053 -0.237,0.045 -0.236,0.037 -0.238,0.027 -0.24,0.022 -0.241,0.013 -0.238,0.004 h -0.031 -219.158 v -9.478 h 11.338 v -5.669 h -11.338 v -9.478 H -22.996 V -275.07 l 8.652,0.002 v -11.318 h 5.668 v 11.319 L 0,-275.066 Z"
           style="fill:none;stroke:#0000ff;stroke-width:0.77475;stroke-linecap:butt;stroke-linejoin:miter;stroke-miterlimit:4;stroke-dasharray:none;stroke-opacity:1"
           id="path14656" />
      </g>
      <g
         id="g14658"
         transform="translate(1091.6845,1684.567)"
         style="stroke-width:0.77475;stroke-dasharray:none">
        <path
           d="m 0,0 c 0.133,0.435 0.338,0.811 0.617,1.127 0.279,0.316 0.626,0.564 1.042,0.744 0.415,0.18 0.888,0.27 1.417,0.27 0.435,0 0.844,-0.064 1.227,-0.192 C 4.686,1.821 5.018,1.638 5.301,1.396 5.585,1.155 5.809,0.855 5.975,0.496 6.141,0.138 6.223,-0.278 6.223,-0.751 6.223,-1.195 6.154,-1.587 6.018,-1.927 5.881,-2.268 5.698,-2.572 5.472,-2.841 5.244,-3.11 4.984,-3.354 4.691,-3.571 4.398,-3.789 4.097,-3.996 3.785,-4.194 3.473,-4.384 3.161,-4.57 2.85,-4.755 2.537,-4.938 2.252,-5.135 1.992,-5.343 1.732,-5.551 1.51,-5.775 1.326,-6.016 1.142,-6.257 1.021,-6.533 0.965,-6.845 h 5.158 v -1.063 h -6.561 c 0.046,0.595 0.153,1.103 0.319,1.523 0.164,0.421 0.375,0.787 0.63,1.099 0.255,0.311 0.544,0.586 0.864,0.822 0.322,0.235 0.657,0.458 1.007,0.666 0.425,0.265 0.798,0.508 1.12,0.73 0.32,0.222 0.588,0.446 0.801,0.673 0.213,0.227 0.373,0.472 0.481,0.737 0.109,0.264 0.163,0.572 0.163,0.922 0,0.273 -0.052,0.521 -0.156,0.744 C 4.688,0.229 4.548,0.421 4.373,0.582 4.198,0.742 3.992,0.865 3.757,0.95 3.521,1.035 3.27,1.077 3.006,1.077 2.656,1.077 2.355,1.004 2.105,0.858 1.855,0.711 1.649,0.52 1.488,0.284 1.328,0.048 1.213,-0.219 1.142,-0.517 1.07,-0.814 1.04,-1.114 1.049,-1.417 H -0.155 C -0.184,-0.906 -0.132,-0.435 0,0 Z"
           style="fill:none;stroke:#000000;stroke-width:0.77475;stroke-linecap:butt;stroke-linejoin:miter;stroke-miterlimit:10;stroke-dasharray:none;stroke-opacity:1"
           id="path14660" />
      </g>
      <g
         id="g14662"
         transform="translate(1289.436,1460.9967)"
         style="stroke-width:0.77475;stroke-dasharray:none">
        <path
           d="M 0,0 H 0.141 0.396 C 0.652,0 0.895,0.036 1.127,0.106 1.357,0.178 1.561,0.281 1.736,0.419 1.91,0.556 2.051,0.728 2.154,0.936 2.258,1.144 2.311,1.38 2.311,1.645 2.311,2.183 2.141,2.587 1.799,2.856 1.459,3.126 1.035,3.26 0.523,3.26 0.203,3.26 -0.078,3.201 -0.318,3.083 -0.561,2.965 -0.758,2.807 -0.914,2.608 -1.07,2.41 -1.186,2.178 -1.262,1.914 -1.338,1.649 -1.375,1.37 -1.375,1.077 H -2.58 c 0.019,0.483 0.098,0.922 0.234,1.319 0.137,0.397 0.332,0.737 0.588,1.02 0.256,0.283 0.574,0.506 0.957,0.666 0.383,0.161 0.824,0.241 1.324,0.241 0.436,0 0.84,-0.054 1.213,-0.163 C 2.109,4.052 2.434,3.889 2.707,3.671 2.98,3.454 3.195,3.175 3.352,2.835 3.508,2.495 3.586,2.093 3.586,1.63 3.586,1.177 3.453,0.775 3.189,0.426 2.924,0.076 2.594,-0.188 2.197,-0.368 V -0.396 C 2.811,-0.529 3.268,-0.817 3.564,-1.261 3.861,-1.705 4.012,-2.229 4.012,-2.834 4.012,-3.335 3.918,-3.776 3.734,-4.159 3.551,-4.542 3.303,-4.861 2.99,-5.116 2.678,-5.371 2.313,-5.563 1.893,-5.69 1.471,-5.817 1.025,-5.882 0.553,-5.882 c -0.51,0 -0.973,0.071 -1.389,0.213 -0.416,0.142 -0.771,0.352 -1.064,0.631 -0.293,0.278 -0.516,0.621 -0.672,1.027 -0.157,0.407 -0.231,0.869 -0.221,1.389 h 1.205 c 0.02,-0.651 0.209,-1.183 0.567,-1.594 0.359,-0.411 0.884,-0.617 1.574,-0.617 0.293,0 0.572,0.045 0.836,0.135 0.263,0.09 0.496,0.218 0.695,0.383 0.197,0.165 0.355,0.368 0.475,0.609 0.117,0.241 0.175,0.513 0.175,0.815 0,0.312 -0.056,0.588 -0.17,0.829 -0.113,0.241 -0.263,0.444 -0.453,0.61 -0.189,0.165 -0.414,0.288 -0.673,0.368 -0.26,0.08 -0.542,0.12 -0.842,0.12 -0.256,0 -0.496,-0.014 -0.723,-0.042 V 0.015 C -0.08,0.005 -0.037,0 0,0 Z"
           style="fill:none;stroke:#000000;stroke-width:0.77475;stroke-linecap:butt;stroke-linejoin:miter;stroke-miterlimit:10;stroke-dasharray:none;stroke-opacity:1"
           id="path14664" />
      </g>
      <g
         id="g14666"
         transform="translate(1295.3629,1256.6555)"
         style="stroke-width:0.77475;stroke-dasharray:none">
        <path
           d="M 0,0 -6.66,-3.846 -13.322,0 V 7.691 L -6.66,11.539 0,7.691 Z"
           style="fill:none;stroke:#0000ff;stroke-width:0.77475;stroke-linecap:round;stroke-linejoin:round;stroke-miterlimit:10;stroke-dasharray:none;stroke-opacity:1"
           id="path14668" />
      </g>
      <g
         id="g14670"
         transform="translate(1295.3629,905.15936)"
         style="stroke-width:0.77475;stroke-dasharray:none">
        <path
           d="M 0,0 -6.66,-3.846 -13.322,0 V 7.691 L -6.66,11.539 0,7.691 Z"
           style="fill:none;stroke:#0000ff;stroke-width:0.77475;stroke-linecap:round;stroke-linejoin:round;stroke-miterlimit:10;stroke-dasharray:none;stroke-opacity:1"
           id="path14672" />
      </g>
      <g
         id="g14674"
         transform="translate(1155.1055,912.05586)"
         style="stroke-width:0.77475;stroke-dasharray:none">
        <path
           d="m 0,0 c 4.385,0 7.043,-2.658 7.043,-6.566 0,-3.967 -2.996,-6.288 -6.805,-6.288 -4.006,0 -7.002,2.559 -7.002,6.506 C -6.764,-2.242 -3.689,0 0,0 Z"
           style="fill:none;stroke:#000000;stroke-width:0.77475;stroke-linecap:butt;stroke-linejoin:miter;stroke-miterlimit:4;stroke-dasharray:none;stroke-opacity:1"
           id="path14676" />
      </g>
      <g
         id="g14678"
         transform="translate(1301.7242,1345.4719)"
         style="stroke-width:0.77475;stroke-dasharray:none">
        <path
           d="M 0,0 H -8.652 V -11.317 H -14.32 V 0 h -8.652 v -427.508 h -139.82 v -9.635 h -11.317 v -5.67 h 11.318 v -9.32 H -7.176 l 0.24,0.004 0.241,0.012 0.238,0.019 0.238,0.03 0.239,0.035 0.234,0.043 0.234,0.052 0.235,0.059 0.23,0.066 0.227,0.077 0.226,0.082 0.223,0.09 0.219,0.097 0.216,0.104 0.213,0.111 0.207,0.119 0.205,0.125 0.202,0.133 0.195,0.139 0.191,0.144 0.186,0.153 0.182,0.156 0.175,0.164 0.17,0.17 0.164,0.174 0.158,0.181 0.153,0.186 0.144,0.189 0.141,0.196 0.133,0.199 0.127,0.205 0.119,0.209 0.113,0.211 0.106,0.217 0.097,0.218 0.09,0.221 0.084,0.227 0.076,0.226 0.067,0.231 0.062,0.232 0.051,0.234 0.045,0.237 0.037,0.236 0.027,0.238 0.024,0.239 0.012,0.24 0.003,0.24 v 0.029 L 0.023,0 Z"
           style="fill:none;stroke:#0000ff;stroke-width:0.77475;stroke-linecap:butt;stroke-linejoin:miter;stroke-miterlimit:4;stroke-dasharray:none;stroke-opacity:1"
           id="path14680" />
      </g>
      <g
         id="g14682"
         transform="translate(1175.3965,908.93866)"
         style="stroke-width:0.77475;stroke-dasharray:none">
        <path
           d="M 0,0 H -0.028 L -3.373,-4.918 H 0 Z M 2.494,-4.918 V -5.981 H 1.134 V -8.334 H 0 v 2.353 h -4.408 v 1.162 L 0.17,1.715 h 0.964 v -6.633 z"
           style="fill:none;stroke:#000000;stroke-width:0.77475;stroke-linecap:butt;stroke-linejoin:miter;stroke-miterlimit:10;stroke-dasharray:none;stroke-opacity:1"
           id="path14684" />
      </g>
      <g
         id="g14686"
         transform="translate(1290.4527,1320.7424)"
         style="stroke-width:0.77475;stroke-dasharray:none">
        <path
           d="M 0,0 H 0.141 0.396 C 0.65,0 0.895,0.036 1.127,0.106 1.357,0.178 1.561,0.281 1.736,0.419 1.91,0.556 2.049,0.728 2.154,0.936 2.258,1.144 2.309,1.38 2.309,1.645 2.309,2.183 2.139,2.587 1.799,2.856 1.459,3.126 1.033,3.26 0.523,3.26 0.203,3.26 -0.078,3.201 -0.32,3.083 -0.561,2.965 -0.76,2.807 -0.914,2.608 -1.07,2.41 -1.188,2.178 -1.262,1.914 -1.338,1.649 -1.375,1.37 -1.375,1.077 H -2.58 c 0.019,0.483 0.096,0.922 0.234,1.319 0.137,0.397 0.332,0.737 0.588,1.02 0.254,0.283 0.574,0.506 0.957,0.666 0.383,0.161 0.824,0.241 1.324,0.241 0.436,0 0.838,-0.054 1.213,-0.163 C 2.109,4.052 2.432,3.889 2.707,3.671 2.98,3.454 3.195,3.175 3.352,2.835 3.508,2.495 3.586,2.093 3.586,1.63 3.586,1.177 3.453,0.775 3.188,0.426 2.924,0.076 2.594,-0.188 2.195,-0.368 V -0.396 C 2.811,-0.529 3.266,-0.817 3.564,-1.261 3.861,-1.705 4.01,-2.229 4.01,-2.834 4.01,-3.335 3.918,-3.776 3.734,-4.159 3.549,-4.542 3.301,-4.861 2.99,-5.116 2.678,-5.371 2.313,-5.563 1.891,-5.69 1.471,-5.817 1.025,-5.882 0.553,-5.882 c -0.512,0 -0.975,0.071 -1.391,0.213 -0.414,0.142 -0.769,0.352 -1.062,0.631 -0.293,0.278 -0.518,0.621 -0.672,1.027 -0.157,0.407 -0.231,0.869 -0.221,1.389 h 1.205 c 0.02,-0.651 0.207,-1.183 0.567,-1.594 0.359,-0.411 0.882,-0.617 1.574,-0.617 0.293,0 0.57,0.045 0.836,0.135 0.263,0.09 0.496,0.218 0.693,0.383 0.199,0.165 0.357,0.368 0.475,0.609 0.119,0.241 0.177,0.513 0.177,0.815 0,0.312 -0.056,0.588 -0.17,0.829 -0.113,0.241 -0.263,0.444 -0.453,0.61 -0.189,0.165 -0.414,0.288 -0.673,0.368 -0.26,0.08 -0.542,0.12 -0.844,0.12 -0.254,0 -0.496,-0.014 -0.723,-0.042 V 0.015 C -0.082,0.005 -0.039,0 0,0 Z"
           style="fill:none;stroke:#000000;stroke-width:0.77475;stroke-linecap:butt;stroke-linejoin:miter;stroke-miterlimit:10;stroke-dasharray:none;stroke-opacity:1"
           id="path14688" />
      </g>
    </g>
  </g>
</svg>
